<svg width="31" height="23" viewBox="0 0 31 23" fill="none" xmlns="http://www.w3.org/2000/svg">
<path d="M29.5507 12.277C29.3327 9.83029 28.9736 9.35379 28.838 9.17457C28.5262 8.76043 28.0273 8.48979 27.4993 8.20582C27.4695 8.19003 27.4437 8.16752 27.424 8.14007C27.4044 8.11261 27.3913 8.08096 27.386 8.04761C27.3807 8.01426 27.3831 7.98013 27.3932 7.9479C27.4033 7.91568 27.4208 7.88624 27.4442 7.86191C27.542 7.76276 27.6172 7.6436 27.6645 7.51264C27.7118 7.38168 27.7303 7.24202 27.7185 7.10326C27.6957 6.85721 27.5813 6.62869 27.398 6.46305C27.2146 6.2974 26.9757 6.20672 26.7286 6.20898H25.784C25.7436 6.20922 25.7031 6.21185 25.6629 6.21686C25.6354 6.2049 25.6068 6.19537 25.5776 6.1884C25.0181 5.00592 24.2522 3.38689 22.6647 2.59676C20.31 1.42578 15.9724 1.36523 15.1248 1.36523C14.2771 1.36523 9.93953 1.42578 7.58789 2.59494C6.00035 3.38508 5.23443 5.0041 4.67498 6.18658L4.67013 6.19627C4.64223 6.20019 4.61483 6.2071 4.58839 6.21686C4.54822 6.21185 4.50778 6.20922 4.4673 6.20898H3.52095C3.27386 6.20672 3.03493 6.2974 2.85156 6.46305C2.6682 6.62869 2.55378 6.85721 2.53101 7.10326C2.52026 7.2417 2.53952 7.38083 2.58748 7.51113C2.63545 7.64144 2.71098 7.75985 2.80892 7.85828C2.83235 7.88261 2.84981 7.91204 2.85992 7.94427C2.87002 7.9765 2.8725 8.01063 2.86716 8.04398C2.86182 8.07733 2.8488 8.10898 2.82913 8.13643C2.80946 8.16389 2.78368 8.1864 2.75382 8.20219C2.22586 8.48797 1.72453 8.75861 1.41513 9.17094C1.27951 9.35258 0.92107 9.82666 0.702496 12.2734C0.581402 13.6502 0.563238 15.0755 0.658297 15.9934C0.857496 17.9006 1.23107 19.0534 1.24681 19.1012C1.30414 19.2753 1.40966 19.4295 1.55113 19.546C1.69259 19.6625 1.8642 19.7365 2.04603 19.7594V19.7715C2.04603 20.0284 2.1481 20.2748 2.32977 20.4565C2.51145 20.6382 2.75785 20.7402 3.01478 20.7402H6.40541C6.66233 20.7402 6.90874 20.6382 7.09042 20.4565C7.27209 20.2748 7.37416 20.0284 7.37416 19.7715C7.89546 19.7715 8.25814 19.6782 8.64261 19.5789C9.1977 19.4294 9.76507 19.3299 10.3379 19.2817C12.1852 19.1055 14.0222 19.0449 15.1248 19.0449C16.2049 19.0449 18.123 19.1055 19.9734 19.2817C20.5485 19.33 21.1181 19.4299 21.6753 19.5802C22.0435 19.6746 22.3928 19.7618 22.8766 19.7709C22.8766 20.0278 22.9786 20.2742 23.1603 20.4559C23.342 20.6376 23.5884 20.7396 23.8453 20.7396H27.236C27.4929 20.7396 27.7393 20.6376 27.921 20.4559C28.1026 20.2742 28.2047 20.0278 28.2047 19.7709V19.7636C28.387 19.7412 28.5591 19.6674 28.701 19.5509C28.843 19.4343 28.9488 19.2799 29.0063 19.1055C29.0221 19.0576 29.3957 17.9048 29.5949 15.9976C29.6899 15.0791 29.673 13.6563 29.5507 12.277ZM6.42599 7.01486C6.91037 5.98557 7.46437 4.82065 8.45068 4.32961C9.87595 3.62 12.83 3.30031 15.1248 3.30031C17.4195 3.30031 20.3736 3.61758 21.7988 4.32961C22.7852 4.82065 23.3367 5.98617 23.8235 7.01486L23.8841 7.14625C23.9195 7.22105 23.9351 7.30367 23.9295 7.38623C23.9239 7.4688 23.8973 7.54855 23.8521 7.61789C23.8069 7.68723 23.7448 7.74383 23.6715 7.78231C23.5982 7.82079 23.5163 7.83986 23.4336 7.8377C21.4216 7.7832 17.1834 7.60883 15.1248 7.60883C13.0662 7.60883 8.82789 7.78744 6.81289 7.84193C6.73016 7.8441 6.64826 7.82503 6.575 7.78655C6.50173 7.74807 6.43955 7.69146 6.39438 7.62213C6.3492 7.55279 6.32255 7.47304 6.31696 7.39047C6.31136 7.30791 6.32701 7.22529 6.36242 7.15049C6.38361 7.10568 6.40601 7.06027 6.42599 7.01486ZM7.14832 11.8362C6.10679 11.9616 5.05861 12.0234 4.00957 12.0215C3.36777 12.0215 2.70599 11.8398 2.58308 11.2683C2.49892 10.8838 2.508 10.6677 2.55341 10.4503C2.59156 10.2656 2.65211 10.1312 2.95484 10.084C3.74195 9.96289 4.18213 10.1149 5.47056 10.4945C6.32488 10.7458 6.94125 11.0806 7.29242 11.3458C7.46861 11.4766 7.37476 11.818 7.14832 11.8362ZM20.5522 16.8011C19.7554 16.8919 18.1618 16.8586 15.1429 16.8586C12.1241 16.8586 10.5311 16.8919 9.73427 16.8011C8.91205 16.7096 7.86398 15.9322 8.57964 15.2396C9.05615 14.783 10.1678 14.4415 11.6482 14.2496C13.1285 14.0577 13.7552 13.959 15.1369 13.959C16.5185 13.959 17.0816 14.0195 18.6256 14.2502C20.1695 14.4809 21.3363 14.8266 21.6941 15.2402C22.3468 15.9813 21.3738 16.7048 20.5522 16.8047V16.8011ZM27.6664 11.2677C27.5453 11.8417 26.8793 12.0209 26.24 12.0209C25.1708 12.0211 24.1026 11.9593 23.0407 11.8356C22.8554 11.818 22.7694 11.4929 22.9571 11.3452C23.3028 11.0733 23.9259 10.7452 24.779 10.4939C26.0674 10.1143 26.8103 9.96229 27.4485 10.0888C27.6041 10.1197 27.6864 10.2868 27.6961 10.3916C27.7388 10.6832 27.7288 10.9802 27.6664 11.2683V11.2677Z" fill="#021C40"/>
</svg>
