<svg width="18" height="18" viewBox="0 0 18 18" fill="none" xmlns="http://www.w3.org/2000/svg">
<path d="M9 0C7.21997 0 5.47991 0.527841 3.99987 1.51677C2.51983 2.50571 1.36628 3.91131 0.685088 5.55585C0.00389951 7.20038 -0.17433 9.00998 0.172937 10.7558C0.520203 12.5016 1.37737 14.1053 2.63604 15.364C3.89472 16.6226 5.49836 17.4798 7.24419 17.8271C8.99002 18.1743 10.7996 17.9961 12.4442 17.3149C14.0887 16.6337 15.4943 15.4802 16.4832 14.0001C17.4722 12.5201 18 10.78 18 9C18 6.61305 17.0518 4.32387 15.364 2.63604C13.6761 0.948211 11.387 0 9 0ZM16.46 8.25H13.7C13.3507 5.84101 12.332 3.57849 10.76 1.72C12.2678 2.08729 13.625 2.91204 14.6455 4.08115C15.666 5.25025 16.2998 6.70644 16.46 8.25ZM5.81 9.75H12.19C11.7281 12.1188 10.6247 14.3153 9 16.1C7.37534 14.3153 6.2719 12.1188 5.81 9.75ZM5.81 8.25C6.2719 5.88119 7.37534 3.68468 9 1.9C10.6247 3.68468 11.7281 5.88119 12.19 8.25H5.81ZM7.24 1.72C5.66798 3.57849 4.64932 5.84101 4.3 8.25H1.54C1.70021 6.70644 2.33403 5.25025 3.35454 4.08115C4.37504 2.91204 5.73225 2.08729 7.24 1.72ZM1.54 9.72H4.3C4.64932 12.129 5.66798 14.3915 7.24 16.25C5.73666 15.8845 4.38264 15.0642 3.36258 13.901C2.34251 12.7377 1.70606 11.2882 1.54 9.75V9.72ZM10.76 16.25C12.332 14.3915 13.3507 12.129 13.7 9.72H16.46C16.3057 11.2689 15.6745 12.7318 14.6536 13.9067C13.6326 15.0817 12.2722 15.9109 10.76 16.28V16.25Z" fill="#AFD9E1"/>
</svg>
