<svg width="32" height="32" viewBox="0 0 32 32" fill="none" xmlns="http://www.w3.org/2000/svg">
<path d="M13.3332 6.66675C13.3365 7.07204 13.4341 7.471 13.6183 7.83203C13.8025 8.19305 14.0683 8.50623 14.3945 8.74675L7.33317 13.3147H5.32917C4.62299 13.3147 3.94573 13.5953 3.44638 14.0946C2.94703 14.594 2.6665 15.2712 2.6665 15.9774V26.6747C2.6665 27.3809 2.94703 28.0582 3.44638 28.5575C3.94573 29.0569 4.62299 29.3374 5.32917 29.3374H26.6625C27.3709 29.3371 28.0502 29.0554 28.551 28.5543C29.0518 28.0533 29.3332 27.3738 29.3332 26.6654V15.9774C29.3332 15.2712 29.0526 14.594 28.5533 14.0946C28.054 13.5953 27.3767 13.3147 26.6705 13.3147H24.6825L17.6132 8.74008C17.9371 8.49947 18.2008 8.187 18.3836 7.82725C18.5664 7.46749 18.6632 7.07025 18.6665 6.66675C18.66 6.20196 18.5339 5.74669 18.3004 5.34478C18.0669 4.94288 17.7338 4.60788 17.3332 4.37208V2.66675H15.9998V5.33341C16.2635 5.33341 16.5213 5.41161 16.7406 5.55812C16.9599 5.70463 17.1308 5.91287 17.2317 6.1565C17.3326 6.40014 17.359 6.66823 17.3076 6.92687C17.2561 7.18551 17.1291 7.42309 16.9426 7.60956C16.7562 7.79603 16.5186 7.92301 16.26 7.97446C16.0013 8.02591 15.7332 7.9995 15.4896 7.89859C15.246 7.79767 15.0377 7.62677 14.8912 7.40751C14.7447 7.18824 14.6665 6.93046 14.6665 6.66675M15.9932 9.29875L15.9998 9.30008L16.0225 9.29741L22.2292 13.3147H9.78917L15.9932 9.29875ZM9.33317 24.0001C9.33317 24.3537 9.1927 24.6928 8.94265 24.9429C8.6926 25.1929 8.35346 25.3334 7.99984 25.3334C7.64622 25.3334 7.30708 25.1929 7.05703 24.9429C6.80698 24.6928 6.6665 24.3537 6.6665 24.0001V18.6667C6.6665 18.3131 6.80698 17.974 7.05703 17.7239C7.30708 17.4739 7.64622 17.3334 7.99984 17.3334C8.35346 17.3334 8.6926 17.4739 8.94265 17.7239C9.1927 17.974 9.33317 18.3131 9.33317 18.6667V24.0001ZM14.6665 24.0001C14.6665 24.3537 14.526 24.6928 14.276 24.9429C14.0259 25.1929 13.6868 25.3334 13.3332 25.3334C12.9796 25.3334 12.6404 25.1929 12.3904 24.9429C12.1403 24.6928 11.9998 24.3537 11.9998 24.0001V18.6667C11.9998 18.3131 12.1403 17.974 12.3904 17.7239C12.6404 17.4739 12.9796 17.3334 13.3332 17.3334C13.6868 17.3334 14.0259 17.4739 14.276 17.7239C14.526 17.974 14.6665 18.3131 14.6665 18.6667V24.0001ZM19.9998 24.0001C19.9998 24.3537 19.8594 24.6928 19.6093 24.9429C19.3593 25.1929 19.0201 25.3334 18.6665 25.3334C18.3129 25.3334 17.9737 25.1929 17.7237 24.9429C17.4736 24.6928 17.3332 24.3537 17.3332 24.0001V18.6667C17.3332 18.3131 17.4736 17.974 17.7237 17.7239C17.9737 17.4739 18.3129 17.3334 18.6665 17.3334C19.0201 17.3334 19.3593 17.4739 19.6093 17.7239C19.8594 17.974 19.9998 18.3131 19.9998 18.6667V24.0001ZM25.3332 24.0001C25.3332 24.3537 25.1927 24.6928 24.9427 24.9429C24.6926 25.1929 24.3535 25.3334 23.9998 25.3334C23.6462 25.3334 23.3071 25.1929 23.057 24.9429C22.807 24.6928 22.6665 24.3537 22.6665 24.0001V18.6667C22.6665 18.3131 22.807 17.974 23.057 17.7239C23.3071 17.4739 23.6462 17.3334 23.9998 17.3334C24.3535 17.3334 24.6926 17.4739 24.9427 17.7239C25.1927 17.974 25.3332 18.3131 25.3332 18.6667V24.0001Z" fill="#021C40"/>
</svg>
