<svg width="35" height="24" viewBox="0 0 35 24" fill="none" xmlns="http://www.w3.org/2000/svg">
<path d="M32.5022 2.00885C31.1431 0.668417 28.6446 0 25.0068 0H7.79951L7.49545 0.822944H10.3236L3.07731 22.7046H0.249116L0 23.5312H17.6909L17.9766 22.7046H14.0604L16.5112 15.3017C17.6799 15.4634 18.9364 15.5461 20.2846 15.5461C24.6844 15.5461 28.161 14.7483 30.7145 13.1491C33.2642 11.5536 34.5428 9.41175 34.5428 6.72011C34.5428 4.9197 33.8614 3.34927 32.5022 2.00885ZM26.648 8.39475C24.0616 8.39475 21.8013 10.2527 21.4166 12.8365C21.8379 9.99751 19.8377 7.36337 16.9435 6.9501C17.2036 6.98604 17.4601 7.00401 17.7128 7.00401C20.2992 7.00401 22.5596 5.1461 22.9443 2.56227C22.9076 2.81742 22.8893 3.06897 22.8893 3.31693C22.8893 5.85404 24.7833 8.07132 27.4174 8.44865C27.1573 8.41272 26.9008 8.39475 26.648 8.39475Z" fill="#489FB5"/>
</svg>
