<svg width="19" height="15" viewBox="0 0 19 15" fill="none" xmlns="http://www.w3.org/2000/svg">
<path fill-rule="evenodd" clip-rule="evenodd" d="M4.23274 7.55296L4.59974 7.78696C5.26171 8.20825 6.06239 8.35342 6.83012 8.19135C7.59786 8.02928 8.27154 7.57286 8.70674 6.91996L9.49974 5.72996L10.2927 6.91996C10.7279 7.57286 11.4016 8.02928 12.1694 8.19135C12.9371 8.35342 13.7378 8.20825 14.3997 7.78696L14.7667 7.55296L13.9577 10.625H5.04174L4.23274 7.55296ZM15.8457 4.49496C16.6137 4.00696 17.5817 4.71396 17.3497 5.59396L15.6957 11.88C15.6395 12.0933 15.5142 12.2821 15.3395 12.4168C15.1648 12.5516 14.9504 12.6248 14.7297 12.625H4.27174C4.05092 12.625 3.8363 12.5519 3.66138 12.4171C3.48645 12.2824 3.36105 12.0935 3.30474 11.88L1.65074 5.59396C1.41874 4.71396 2.38674 4.00696 3.15474 4.49496L5.67474 6.09896C5.8954 6.23939 6.16229 6.28778 6.4182 6.23375C6.67411 6.17973 6.89867 6.02759 7.04374 5.80996L8.66874 3.37296C8.76006 3.236 8.88378 3.12371 9.02892 3.04604C9.17406 2.96837 9.33613 2.92773 9.50074 2.92773C9.66535 2.92773 9.82742 2.96837 9.97256 3.04604C10.1177 3.12371 10.2414 3.236 10.3327 3.37296L11.9567 5.80996C12.1017 6.02776 12.3261 6.1801 12.5821 6.23431C12.838 6.28853 13.105 6.24029 13.3257 6.09996L15.8457 4.49496Z" fill="#FCDD0A"/>
<path d="M8.5 1.125C8.5 1.39022 8.60536 1.64457 8.79289 1.83211C8.98043 2.01964 9.23478 2.125 9.5 2.125C9.76522 2.125 10.0196 2.01964 10.2071 1.83211C10.3946 1.64457 10.5 1.39022 10.5 1.125C10.5 0.859784 10.3946 0.60543 10.2071 0.417893C10.0196 0.230357 9.76522 0.125 9.5 0.125C9.23478 0.125 8.98043 0.230357 8.79289 0.417893C8.60536 0.60543 8.5 0.859784 8.5 1.125ZM0.5 3.125C0.5 3.39022 0.605356 3.64457 0.792892 3.83211C0.980429 4.01964 1.23478 4.125 1.5 4.125C1.76522 4.125 2.01957 4.01964 2.20711 3.83211C2.39464 3.64457 2.5 3.39022 2.5 3.125C2.5 2.85978 2.39464 2.60543 2.20711 2.41789C2.01957 2.23036 1.76522 2.125 1.5 2.125C1.23478 2.125 0.980429 2.23036 0.792892 2.41789C0.605356 2.60543 0.5 2.85978 0.5 3.125ZM16.5 3.125C16.5 3.39022 16.6054 3.64457 16.7929 3.83211C16.9804 4.01964 17.2348 4.125 17.5 4.125C17.7652 4.125 18.0196 4.01964 18.2071 3.83211C18.3946 3.64457 18.5 3.39022 18.5 3.125C18.5 2.85978 18.3946 2.60543 18.2071 2.41789C18.0196 2.23036 17.7652 2.125 17.5 2.125C17.2348 2.125 16.9804 2.23036 16.7929 2.41789C16.6054 2.60543 16.5 2.85978 16.5 3.125Z" fill="#FCDD0A"/>
<path fill-rule="evenodd" clip-rule="evenodd" d="M15 13.875C15 13.6098 14.8946 13.3554 14.7071 13.1679C14.5196 12.9804 14.2652 12.875 14 12.875H4.749C4.48378 12.875 4.22943 12.9804 4.04189 13.1679C3.85436 13.3554 3.749 13.6098 3.749 13.875C3.749 14.1402 3.85436 14.3946 4.04189 14.5821C4.22943 14.7696 4.48378 14.875 4.749 14.875H14C14.2652 14.875 14.5196 14.7696 14.7071 14.5821C14.8946 14.3946 15 14.1402 15 13.875Z" fill="#FCDD0A"/>
</svg>
