<svg width="63" height="63" viewBox="0 0 63 63" fill="none" xmlns="http://www.w3.org/2000/svg">
<path d="M31.5 0C48.888 0 63 14.112 63 31.5C63 48.888 48.888 63 31.5 63C14.112 63 0 48.888 0 31.5C0 14.112 14.112 0 31.5 0ZM31.5 56.7C45.4451 56.7 56.7 45.4451 56.7 31.5C56.7 17.555 45.4451 6.3 31.5 6.3C28.1895 6.29585 24.9108 6.94484 21.8515 8.20979C18.7922 9.47474 16.0125 11.3308 13.6717 13.6717C11.3308 16.0125 9.47474 18.7922 8.20979 21.8515C6.94484 24.9108 6.29585 28.1895 6.3 31.5C6.3 45.4451 17.555 56.7 31.5 56.7ZM31.5 50.4C21.042 50.4 12.6 41.958 12.6 31.5C12.6 21.042 21.042 12.6 31.5 12.6C41.958 12.6 50.4 21.042 50.4 31.5C50.4 41.958 41.958 50.4 31.5 50.4ZM31.5 25.2C28.035 25.2 25.2 28.035 25.2 31.5C25.2 34.965 28.035 37.8 31.5 37.8C34.965 37.8 37.8 34.965 37.8 31.5C37.8 28.035 34.965 25.2 31.5 25.2Z" fill="white"/>
</svg>
