<svg width="19" height="20" viewBox="0 0 19 20" fill="none" xmlns="http://www.w3.org/2000/svg">
<path d="M13.749 0H18.303L18.403 0.0139999L18.502 0.0420001L18.562 0.0680001C18.642 0.102 18.715 0.153 18.781 0.218L18.821 0.262L18.865 0.319L18.919 0.409L18.958 0.499L18.977 0.563L18.991 0.627L19 0.722V5.254C18.9999 5.44402 18.9277 5.62694 18.798 5.76579C18.6683 5.90464 18.4907 5.98907 18.3011 6.00203C18.1115 6.01498 17.9241 5.95548 17.7767 5.83557C17.6293 5.71565 17.5329 5.54425 17.507 5.356L17.5 5.254V2.559L11.06 8.999C10.933 9.12602 10.7646 9.20325 10.5855 9.21664C10.4064 9.23004 10.2284 9.17871 10.084 9.072L9.99996 9L6.96996 6.09L1.27996 11.779C1.14614 11.9132 0.96647 11.9917 0.777086 11.9989C0.587703 12.006 0.402644 11.9412 0.259119 11.8174C0.115594 11.6936 0.0242446 11.5201 0.00343735 11.3317C-0.0173699 11.1434 0.0339079 10.9541 0.146961 10.802L0.219961 10.718L6.43996 4.498C6.56707 4.37113 6.73549 4.29409 6.9146 4.28088C7.09371 4.26766 7.27161 4.31916 7.41596 4.426L7.49996 4.498L10.53 7.408L16.438 1.5H13.748C13.5669 1.49975 13.392 1.43401 13.2557 1.3149C13.1193 1.1958 13.0306 1.03138 13.006 0.852L12.999 0.75C12.999 0.568762 13.0646 0.393658 13.1837 0.257069C13.3029 0.120481 13.4674 0.0316483 13.647 0.00699997L13.749 0ZM0.749961 15C0.948873 15 1.13964 15.079 1.28029 15.2197C1.42094 15.3603 1.49996 15.5511 1.49996 15.75V19.25C1.49996 19.4489 1.42094 19.6397 1.28029 19.7803C1.13964 19.921 0.948873 20 0.749961 20C0.551049 20 0.360283 19.921 0.219631 19.7803C0.0789785 19.6397 -3.90301e-05 19.4489 -3.90301e-05 19.25V15.75C-3.90301e-05 15.5511 0.0789785 15.3603 0.219631 15.2197C0.360283 15.079 0.551049 15 0.749961 15ZM6.49996 11.75C6.49996 11.5511 6.42094 11.3603 6.28029 11.2197C6.13964 11.079 5.94887 11 5.74996 11C5.55105 11 5.36028 11.079 5.21963 11.2197C5.07898 11.3603 4.99996 11.5511 4.99996 11.75V19.25C4.99996 19.4489 5.07898 19.6397 5.21963 19.7803C5.36028 19.921 5.55105 20 5.74996 20C5.94887 20 6.13964 19.921 6.28029 19.7803C6.42094 19.6397 6.49996 19.4489 6.49996 19.25V11.75ZM10.75 13C10.9489 13 11.1396 13.079 11.2803 13.2197C11.4209 13.3603 11.5 13.5511 11.5 13.75V19.25C11.5 19.4489 11.4209 19.6397 11.2803 19.7803C11.1396 19.921 10.9489 20 10.75 20C10.551 20 10.3603 19.921 10.2196 19.7803C10.079 19.6397 9.99996 19.4489 9.99996 19.25V13.75C9.99996 13.5511 10.079 13.3603 10.2196 13.2197C10.3603 13.079 10.551 13 10.75 13ZM16.5 8.75C16.5 8.55109 16.4209 8.36032 16.2803 8.21967C16.1396 8.07902 15.9489 8 15.75 8C15.551 8 15.3603 8.07902 15.2196 8.21967C15.079 8.36032 15 8.55109 15 8.75V19.25C15 19.4489 15.079 19.6397 15.2196 19.7803C15.3603 19.921 15.551 20 15.75 20C15.9489 20 16.1396 19.921 16.2803 19.7803C16.4209 19.6397 16.5 19.4489 16.5 19.25V8.75Z" fill="#FAE2BF"/>
</svg>
