<svg width="29" height="30" viewBox="0 0 29 30" fill="none" xmlns="http://www.w3.org/2000/svg">
<rect x="0.5" y="1" width="28" height="28" rx="4.5" stroke="url(#paint0_linear_827_74)"/>
<path d="M13.2716 18.2707C13.6015 18.6005 14.0171 18.7557 14.5185 18.7362C15.0199 18.7166 15.3827 18.5351 15.607 18.1915L20.0404 11.5415L13.3904 15.9748C13.0473 16.2123 12.8594 16.5718 12.8267 17.0531C12.794 17.5344 12.9423 17.9403 13.2716 18.2707ZM9.0362 21.8332C8.74592 21.8332 8.47886 21.7704 8.23503 21.6448C7.9912 21.5191 7.79645 21.3313 7.65078 21.0811C7.30773 20.4609 7.04384 19.8179 6.85911 19.1518C6.67439 18.4857 6.58203 17.7962 6.58203 17.0832C6.58203 15.988 6.78998 14.9589 7.20586 13.9957C7.62175 13.0325 8.18568 12.1946 8.89766 11.4821C9.61016 10.7696 10.448 10.2057 11.4112 9.79034C12.3744 9.37498 13.4036 9.16703 14.4987 9.1665C15.5806 9.1665 16.5966 9.37102 17.5466 9.78005C18.4966 10.1891 19.3279 10.7467 20.0404 11.4528C20.7529 12.1585 21.3202 12.9831 21.7424 13.9268C22.1647 14.8705 22.3824 15.883 22.3956 16.9644C22.4088 17.6901 22.3264 18.3994 22.1486 19.0924C21.9707 19.7854 21.6968 20.4483 21.3268 21.0811C21.1817 21.3318 20.9872 21.5199 20.7434 21.6455C20.4995 21.7712 20.2319 21.8337 19.9406 21.8332H9.0362Z" fill="#D7D7D7"/>
<defs>
<linearGradient id="paint0_linear_827_74" x1="0" y1="0.5" x2="29" y2="29.5" gradientUnits="userSpaceOnUse">
<stop stop-color="white"/>
<stop offset="0.742389" stop-color="#999999" stop-opacity="0.72"/>
</linearGradient>
</defs>
</svg>
