<svg width="63" height="63" viewBox="0 0 63 63" fill="none" xmlns="http://www.w3.org/2000/svg">
<path d="M31.5 0C25.2699 0 19.1797 1.84744 13.9995 5.30871C8.8194 8.76997 4.78197 13.6896 2.39781 19.4455C0.0136485 25.2013 -0.610156 31.5349 0.605278 37.6453C1.82071 43.7557 4.8208 49.3685 9.22615 53.7739C13.6315 58.1792 19.2443 61.1793 25.3547 62.3947C31.4651 63.6102 37.7987 62.9864 43.5545 60.6022C49.3104 58.218 54.23 54.1806 57.6913 49.0005C61.1526 43.8203 63 37.7301 63 31.5C62.9912 23.1484 59.6696 15.1414 53.7641 9.23588C47.8586 3.33039 39.8516 0.00881945 31.5 0ZM23.5129 43.6154H39.4871C37.8606 49.1703 35.1346 54.177 31.5 58.1205C27.8654 54.177 25.1394 49.1703 23.5129 43.6154ZM22.4135 38.7692C21.6098 33.9564 21.6098 29.0436 22.4135 24.2308H40.5865C41.3902 29.0436 41.3902 33.9564 40.5865 38.7692H22.4135ZM4.84617 31.5C4.84406 29.0419 5.18351 26.5954 5.85477 24.2308H17.5037C16.7808 29.05 16.7808 33.95 17.5037 38.7692H5.85477C5.18351 36.4046 4.84406 33.9581 4.84617 31.5ZM39.4871 19.3846H23.5129C25.1394 13.8297 27.8654 8.82303 31.5 4.87947C35.1346 8.82303 37.8606 13.8297 39.4871 19.3846ZM45.4963 24.2308H57.1452C58.4901 28.9836 58.4901 34.0164 57.1452 38.7692H45.4963C46.2192 33.95 46.2192 29.05 45.4963 24.2308ZM55.2371 19.3846H44.5059C43.2693 14.5188 41.1926 9.90627 38.3694 5.75481C41.9763 6.7241 45.3404 8.43752 48.2455 10.7849C51.1505 13.1323 53.532 16.0616 55.2371 19.3846ZM24.6306 5.75481C21.8074 9.90627 19.7307 14.5188 18.4941 19.3846H7.76295C9.46796 16.0616 11.8496 13.1323 14.7546 10.7849C17.6596 8.43752 21.0237 6.7241 24.6306 5.75481ZM7.76295 43.6154H18.4941C19.7307 48.4812 21.8074 53.0937 24.6306 57.2452C21.0237 56.2759 17.6596 54.5625 14.7546 52.2151C11.8496 49.8677 9.46796 46.9383 7.76295 43.6154ZM38.3694 57.2452C41.1926 53.0937 43.2693 48.4812 44.5059 43.6154H55.2371C53.532 46.9383 51.1505 49.8677 48.2455 52.2151C45.3404 54.5625 41.9763 56.2759 38.3694 57.2452Z" fill="white"/>
</svg>
