<svg width="29" height="29" viewBox="0 0 29 29" fill="none" xmlns="http://www.w3.org/2000/svg">
<rect x="0.5" y="0.5" width="28" height="28" rx="4.5" stroke="url(#paint0_linear_932_60)"/>
<path d="M21.475 13.2313L15.7688 7.525C15.0688 6.825 13.9313 6.825 13.2313 7.525L7.525 13.2313C6.825 13.9313 6.825 15.0688 7.525 15.7688L13.2313 21.475C13.5813 21.825 14.0406 22 14.5 22C14.9594 22 15.4188 21.825 15.7688 21.475L21.475 15.7688C22.175 15.0688 22.175 13.9313 21.475 13.2313ZM13.25 17C13.25 17.0969 13.2031 17.1906 13.125 17.25L11.875 18.1875C11.8187 18.2312 11.7531 18.25 11.6875 18.25C11.5938 18.25 11.5 18.2062 11.4375 18.125C11.3344 17.9875 11.3625 17.7906 11.5 17.6875L12.625 16.8438V12.1562L11.5 11.3125C11.3625 11.2094 11.3344 11.0125 11.4375 10.875C11.5406 10.7375 11.7375 10.7094 11.875 10.8125L13.125 11.75C13.2031 11.8094 13.25 11.9031 13.25 12V17ZM17.5 17.6875C17.6375 17.7906 17.6656 17.9875 17.5625 18.125C17.5 18.2062 17.4062 18.25 17.3125 18.25C17.2469 18.25 17.1813 18.2312 17.125 18.1875L15.875 17.25C15.7969 17.1906 15.75 17.0969 15.75 17V12C15.75 11.9031 15.7969 11.8094 15.875 11.75L17.125 10.8125C17.2625 10.7094 17.4594 10.7375 17.5625 10.875C17.6656 11.0125 17.6375 11.2094 17.5 11.3125L16.375 12.1562V16.8438L17.5 17.6875Z" fill="#D7D7D7"/>
<defs>
<linearGradient id="paint0_linear_932_60" x1="0" y1="0" x2="29" y2="29" gradientUnits="userSpaceOnUse">
<stop stop-color="white"/>
<stop offset="0.742389" stop-color="#999999" stop-opacity="0.72"/>
</linearGradient>
</defs>
</svg>
