<svg width="29" height="29" viewBox="0 0 29 29" fill="none" xmlns="http://www.w3.org/2000/svg">
<rect x="0.5" y="0.5" width="28" height="28" rx="4.5" stroke="url(#paint0_linear_932_44)"/>
<path d="M14.9797 15.5815C14.8353 15.4444 14.6377 15.3592 14.4197 15.3592C13.9786 15.3592 13.6198 15.7058 13.6198 16.1318C13.6198 16.5578 13.9786 16.9044 14.4197 16.9044C14.8608 16.9044 15.2197 16.5578 15.2197 16.1318C15.2197 15.9212 15.1315 15.7305 14.9896 15.591C14.9862 15.5878 14.983 15.5848 14.9797 15.5815Z" fill="#D7D7D7"/>
<path d="M8.80365 13.5356C9.9089 12.289 11.545 11.5254 13.3453 11.5254C14.4568 11.5254 15.5328 11.8214 16.4762 12.384L17.6469 10.9875C16.6713 10.4154 15.5627 10.1149 14.4187 10.1149C11.9582 10.1149 9.81218 11.5165 8.80365 13.5356Z" fill="#D7D7D7"/>
<path d="M14.4209 8C9.77594 8 6 11.6465 6 16.1322C6 17.5797 6.40083 19.0045 7.15872 20.2503C7.21935 20.3479 7.3305 20.4097 7.4484 20.4097H21.39C21.5079 20.4097 21.6191 20.3479 21.6797 20.2503C22.4409 19.0045 22.8418 17.5797 22.8418 16.1322C22.8418 11.6465 19.0625 8 14.4209 8ZM18.2066 12.9325L15.6679 15.3841C15.8083 15.602 15.8932 15.8567 15.8932 16.1317C15.8932 16.9163 15.232 17.5548 14.4195 17.5548C13.607 17.5548 12.9459 16.9163 12.9459 16.1317C12.9459 15.3471 13.607 14.7085 14.4195 14.7085C14.7032 14.7085 14.9659 14.79 15.191 14.9247L17.7303 12.4725C17.8619 12.3454 18.075 12.3454 18.2066 12.4725C18.3382 12.5995 18.3382 12.8054 18.2066 12.9325ZM18.406 11.1154L16.8083 13.0214C16.6971 13.1532 16.5001 13.1815 16.355 13.0843C15.4642 12.49 14.4235 12.1758 13.3452 12.1758C10.8742 12.1758 8.75153 13.7968 8.18278 16.118C8.14661 16.2661 8.00977 16.3683 7.85549 16.3683C7.84169 16.3683 7.82787 16.3677 7.81405 16.3658C7.64366 16.3458 7.51602 16.2048 7.51832 16.0389C7.56602 12.4137 10.6614 9.46418 14.4185 9.46418C15.8215 9.46418 17.1757 9.87172 18.3352 10.6431C18.4125 10.6942 18.4642 10.7746 18.4773 10.8641C18.4908 10.954 18.4648 11.0452 18.406 11.1154Z" fill="#D7D7D7"/>
<defs>
<linearGradient id="paint0_linear_932_44" x1="0" y1="0" x2="29" y2="29" gradientUnits="userSpaceOnUse">
<stop stop-color="white"/>
<stop offset="0.742389" stop-color="#999999" stop-opacity="0.72"/>
</linearGradient>
</defs>
</svg>
