<svg width="20" height="19" viewBox="0 0 20 19" fill="none" xmlns="http://www.w3.org/2000/svg">
<path d="M13.3792 12.807L13.8352 12.354L12.7762 11.29L12.3222 11.743L13.3792 12.807ZM15.3642 12.164L17.2752 13.203L17.9902 11.885L16.0802 10.847L15.3642 12.164ZM17.6422 15.267L16.2222 16.68L17.2792 17.743L18.6992 16.331L17.6422 15.267ZM15.3562 17.134C13.9062 17.27 10.1562 17.149 6.09417 13.111L5.03617 14.174C9.46817 18.581 13.6872 18.797 15.4962 18.628L15.3562 17.134ZM6.09417 13.111C2.22317 9.26097 1.58117 6.02398 1.50117 4.61898L0.00317342 4.70398C0.103173 6.47198 0.898174 10.06 5.03617 14.174L6.09417 13.111ZM7.46917 6.93098L7.75617 6.64498L6.70017 5.58198L6.41317 5.86698L7.46917 6.93098ZM7.98417 3.00998L6.72417 1.32598L5.52317 2.22598L6.78317 3.90898L7.98417 3.00998ZM2.48317 0.958976L0.913173 2.51898L1.97117 3.58298L3.54017 2.02298L2.48317 0.958976ZM6.94117 6.39898C6.41117 5.86698 6.41117 5.86698 6.41117 5.86898H6.40917L6.40617 5.87298C6.35896 5.92116 6.31643 5.97373 6.27917 6.02998C6.22517 6.10998 6.16617 6.21498 6.11617 6.34798C5.9944 6.69129 5.96408 7.06039 6.02817 7.41898C6.16217 8.28398 6.75817 9.42698 8.28417 10.945L9.34217 9.88098C7.91317 8.46098 7.57317 7.59698 7.51017 7.18898C7.48017 6.99498 7.51117 6.89898 7.52017 6.87698C7.52517 6.86298 7.52717 6.86198 7.52017 6.87098C7.51135 6.88484 7.50131 6.89789 7.49017 6.90998L7.48017 6.91998C7.47694 6.92308 7.47361 6.92609 7.47017 6.92898L6.94117 6.39898ZM8.28417 10.945C9.81117 12.463 10.9602 13.055 11.8262 13.187C12.2692 13.255 12.6262 13.201 12.8972 13.1C13.0487 13.0439 13.1905 12.9642 13.3172 12.864C13.3344 12.8496 13.3511 12.8346 13.3672 12.819L13.3742 12.813L13.3772 12.81L13.3782 12.808C13.3782 12.808 13.3792 12.807 12.8502 12.275C12.3202 11.743 12.3232 11.742 12.3232 11.742L12.3252 11.74L12.3272 11.738L12.3332 11.733L12.3432 11.723C12.3552 11.7122 12.3679 11.7022 12.3812 11.693C12.3912 11.686 12.3882 11.689 12.3742 11.695C12.3492 11.704 12.2512 11.735 12.0542 11.705C11.6402 11.641 10.7702 11.301 9.34217 9.88098L8.28417 10.945ZM6.72417 1.32498C5.70417 -0.0350245 3.70017 -0.251024 2.48317 0.958976L3.54017 2.02298C4.07217 1.49398 5.01617 1.54898 5.52317 2.22598L6.72417 1.32498ZM1.50217 4.61998C1.48217 4.27398 1.64117 3.91198 1.97117 3.58398L0.912174 2.51998C0.375174 3.05398 -0.0478266 3.80998 0.00317342 4.70398L1.50217 4.61998ZM16.2222 16.68C15.9482 16.954 15.6522 17.108 15.3572 17.135L15.4962 18.628C16.2312 18.559 16.8322 18.189 17.2802 17.744L16.2222 16.68ZM7.75617 6.64498C8.74117 5.66598 8.81417 4.11898 7.98517 3.01098L6.78417 3.90998C7.18717 4.44898 7.12717 5.15598 6.69917 5.58298L7.75617 6.64498ZM17.2762 13.204C18.0932 13.648 18.2202 14.694 17.6432 15.268L18.7012 16.331C20.0412 14.998 19.6282 12.775 17.9912 11.886L17.2762 13.204ZM13.8352 12.355C14.2192 11.973 14.8372 11.879 15.3652 12.165L16.0812 10.848C14.9972 10.258 13.6532 10.421 12.7772 11.291L13.8352 12.355Z" fill="white"/>
</svg>
