<svg width="33" height="32" viewBox="0 0 33 32" fill="none" xmlns="http://www.w3.org/2000/svg">
<path d="M25.8335 20.0001C25.8335 19.289 25.6224 18.5779 25.2002 17.8668C24.7779 17.1557 24.1668 16.6446 23.3668 16.3334L12.9668 12.2001L12.5002 12.0668C12.3446 12.0223 12.1668 12.0001 11.9668 12.0001H9.8335V10.0334C9.8335 9.589 9.9335 9.17789 10.1335 8.80011C10.3335 8.42233 10.6113 8.11122 10.9668 7.86678L17.6335 3.10011C17.8779 2.92233 18.1282 2.79433 18.3842 2.71611C18.6402 2.63789 18.9011 2.59922 19.1668 2.60011C19.4326 2.601 19.6993 2.64011 19.9668 2.71745C20.2344 2.79478 20.4788 2.92233 20.7002 3.10011L27.3668 7.86678C27.7224 8.11122 28.0002 8.42233 28.2002 8.80011C28.4002 9.17789 28.5002 9.589 28.5002 10.0334V20.0001H25.8335ZM20.5002 10.6668C20.6779 10.6668 20.8335 10.6001 20.9668 10.4668C21.1002 10.3334 21.1668 10.1779 21.1668 10.0001C21.1668 9.82233 21.1002 9.66678 20.9668 9.53344C20.8335 9.40011 20.6779 9.33345 20.5002 9.33345C20.3224 9.33345 20.1668 9.40011 20.0335 9.53344C19.9002 9.66678 19.8335 9.82233 19.8335 10.0001C19.8335 10.1779 19.9002 10.3334 20.0335 10.4668C20.1668 10.6001 20.3224 10.6668 20.5002 10.6668ZM17.8335 10.6668C18.0113 10.6668 18.1668 10.6001 18.3002 10.4668C18.4335 10.3334 18.5002 10.1779 18.5002 10.0001C18.5002 9.82233 18.4335 9.66678 18.3002 9.53344C18.1668 9.40011 18.0113 9.33345 17.8335 9.33345C17.6557 9.33345 17.5002 9.40011 17.3668 9.53344C17.2335 9.66678 17.1668 9.82233 17.1668 10.0001C17.1668 10.1779 17.2335 10.3334 17.3668 10.4668C17.5002 10.6001 17.6557 10.6668 17.8335 10.6668ZM20.5002 13.3334C20.6779 13.3334 20.8335 13.2668 20.9668 13.1334C21.1002 13.0001 21.1668 12.8446 21.1668 12.6668C21.1668 12.489 21.1002 12.3334 20.9668 12.2001C20.8335 12.0668 20.6779 12.0001 20.5002 12.0001C20.3224 12.0001 20.1668 12.0668 20.0335 12.2001C19.9002 12.3334 19.8335 12.489 19.8335 12.6668C19.8335 12.8446 19.9002 13.0001 20.0335 13.1334C20.1668 13.2668 20.3224 13.3334 20.5002 13.3334ZM17.8335 13.3334C18.0113 13.3334 18.1668 13.2668 18.3002 13.1334C18.4335 13.0001 18.5002 12.8446 18.5002 12.6668C18.5002 12.489 18.4335 12.3334 18.3002 12.2001C18.1668 12.0668 18.0113 12.0001 17.8335 12.0001C17.6557 12.0001 17.5002 12.0668 17.3668 12.2001C17.2335 12.3334 17.1668 12.489 17.1668 12.6668C17.1668 12.8446 17.2335 13.0001 17.3668 13.1334C17.5002 13.2668 17.6557 13.3334 17.8335 13.3334ZM18.3335 29.1001C18.5779 29.1668 18.8615 29.1948 19.1842 29.1841C19.5068 29.1734 19.7788 29.1232 20.0002 29.0334L29.8335 25.3334C29.8335 24.5779 29.5668 23.9446 29.0335 23.4334C28.5002 22.9223 27.8779 22.6668 27.1668 22.6668H18.0335C17.9668 22.6668 17.8891 22.6614 17.8002 22.6508C17.7113 22.6401 17.6446 22.6232 17.6002 22.6001L15.6335 21.9001C15.4557 21.8334 15.3335 21.7223 15.2668 21.5668C15.2002 21.4112 15.1891 21.2446 15.2335 21.0668C15.2779 20.9112 15.3891 20.789 15.5668 20.7001C15.7446 20.6112 15.9224 20.6001 16.1002 20.6668L17.6002 21.2334C17.6891 21.2779 17.7615 21.3059 17.8175 21.3174C17.8735 21.329 17.9566 21.3343 18.0668 21.3334H21.5668C21.9891 21.3334 22.3611 21.189 22.6828 20.9001C23.0046 20.6112 23.1659 20.2334 23.1668 19.7668C23.1668 19.4557 23.0722 19.1557 22.8828 18.8668C22.6935 18.5779 22.4437 18.3779 22.1335 18.2668L12.9002 14.8334C12.7446 14.789 12.5891 14.7499 12.4335 14.7161C12.2779 14.6823 12.1224 14.6659 11.9668 14.6668H9.8335V26.7001L18.3335 29.1001ZM1.8335 26.6668C1.8335 27.4001 2.09483 28.0281 2.6175 28.5508C3.14016 29.0734 3.76772 29.3343 4.50016 29.3334C5.23261 29.3326 5.86061 29.0717 6.38416 28.5508C6.90772 28.0299 7.16861 27.4019 7.16683 26.6668V17.3334C7.16683 16.6001 6.90594 15.9726 6.38416 15.4508C5.86239 14.929 5.23439 14.6677 4.50016 14.6668C3.76594 14.6659 3.13839 14.9272 2.6175 15.4508C2.09661 15.9743 1.83527 16.6019 1.8335 17.3334V26.6668Z" fill="#021C40"/>
</svg>
