<svg width="15" height="15" viewBox="0 0 15 15" fill="none" xmlns="http://www.w3.org/2000/svg">
<path d="M8.75234 7.36953L6.99766 6.55078C6.84453 6.47969 6.71875 6.55937 6.71875 6.72891V8.27109C6.71875 8.44063 6.84453 8.52031 6.99766 8.44922L8.75156 7.63047C8.90547 7.55859 8.90547 7.44141 8.75234 7.36953ZM7.5 0C3.35781 0 0 3.35781 0 7.5C0 11.6422 3.35781 15 7.5 15C11.6422 15 15 11.6422 15 7.5C15 3.35781 11.6422 0 7.5 0ZM7.5 10.5469C3.66094 10.5469 3.59375 10.2008 3.59375 7.5C3.59375 4.79922 3.66094 4.45312 7.5 4.45312C11.3391 4.45312 11.4062 4.79922 11.4062 7.5C11.4062 10.2008 11.3391 10.5469 7.5 10.5469Z" fill="#E8EAF6"/>
</svg>
