<svg xmlns="http://www.w3.org/2000/svg" width="451" height="617" fill="none">
  <rect width="451" height="617" fill="#AFD9E1" rx="20"/>
  <path fill="#000" fill-opacity=".27" d="M451 468.597v128.374c0 11.046-8.954 20-20 20h-39.778c-4.155 0-8.062-1.737-11.067-4.605-2.954-2.829-5.862-5.698-8.35-8.852-2.711-3.446-4.476-7.314-6.314-11.143-1.326-2.754-2.6-5.532-3.978-8.269-.919-1.823-2.376-3.263-4.326-4.366-2.927-1.651-6.157-2.645-9.505-3.348-5.316-1.12-10.745-1.532-16.193-1.663-6.643-.16-13.292-.189-19.935-.309-7.168-.125-14.342-.2-21.504-.468-5.343-.2-10.673-.76-15.891-1.817-4.083-.823-8.12-1.829-12.143-2.869-4.254-1.097-8.343-2.594-12.42-4.114-4.66-1.743-9.084-3.863-13.37-6.206-5.133-2.806-10.043-5.909-14.651-9.343-3.223-2.4-6.426-4.835-9.439-7.429-2.908-2.509-5.599-5.212-8.317-7.886-3.61-3.548-6.859-7.343-9.912-11.263a169.585 169.585 0 0 1-5.572-7.531 381.269 381.269 0 0 1-7.398-11.086c-1.254-1.955-2.396-3.978-2.993-6.178-.243-.891-.519-1.88.433-2.571.88-.634 1.904-.286 2.862.006 4.011 1.222 7.516 3.234 10.922 5.371 5.691 3.566 11.317 7.212 16.968 10.829 6.052 3.874 12.439 7.274 19.239 10.034 6.768 2.743 13.824 4.738 21.242 5.743 6.511.886 12.957.852 19.304-.76 2.508-.634 5.002-1.394 7.372-2.354 4.562-1.846 8.651-4.372 12.452-7.24 3.886-2.926 7.292-6.212 10.082-9.977 1.917-2.595 3.151-5.406 3.518-8.469.512-4.326-.499-8.429-2.56-12.372a216.993 216.993 0 0 1-3.669-7.434c-2.146-4.538-4.555-8.943-7.588-13.103-2.179-2.995-3.367-6.32-3.413-9.903-.066-4.715 1.096-9.246 2.895-13.658 1.516-3.726 3.465-7.28 5.618-10.754 1.95-3.149 4.07-6.183 6.525-9.063 4.372-5.132 10.266-7.486 17.48-7.669 5.612-.143 10.876 1.069 15.924 3.074 6.768 2.686 12.728 6.36 17.69 11.201 3.617 3.525 6.183 7.554 7.188 12.263.696 3.257.525 6.451-.729 9.594-.426 1.057-.899 2.103-1.293 3.172-.289.783.389 1.716 1.215 1.587.336-.052.698-.177 1.273-.405 3.557-1.4 6.669-3.371 9.518-5.668 4.791-3.863 7.043-8.709 7.161-14.32.092-4.298-1.129-8.401-2.888-12.384-2.186-4.948-5.186-9.52-8.474-13.966a91.18 91.18 0 0 0-8.297-9.68 91.442 91.442 0 0 0-13.837-11.543c-3.079-2.097-6.151-4.206-9.229-6.297-3.985-2.709-7.667-5.743-12.039-8.017-4.043-2.103-8.349-3.435-13.082-3.6-3.157-.109-6.314-.143-9.439.342a414.785 414.785 0 0 0-11.52 1.932c-2.139.394-4.253.937-6.36 1.474-3.157.812-6.315 1.623-9.433 2.532-3.209.937-6.386 1.954-9.55 3-3.702 1.223-7.358 2.537-11.061 3.76-4.542 1.503-9.071 3.04-13.672 4.394-2.928.857-5.974 1.429-8.98 2.08a54.155 54.155 0 0 1-12.498 1.195c-4.811-.092-9.222-1.241-13.075-3.789-2.009-1.332-3.932-2.766-5.921-4.126-5.402-3.697-10.785-7.4-16.699-10.486-3.61-1.88-7.312-3.571-11.31-4.731-4.686-1.366-9.57-1.915-14.421-2.595a96.814 96.814 0 0 0-3.407-.411c-3.603-.377-7.213-.692-10.81-1.132a462.99 462.99 0 0 1-12.879-1.737 1109.477 1109.477 0 0 1-17.473-2.743c-1.156-.188-2.291-.588-3.361-1.023-.985-.4-1.083-1.194-.256-1.805.604-.446 1.313-.915 2.061-1.069 2.127-.44 4.286-.88 6.452-1.034 5.599-.406 11.185.137 16.739.634 6.104.543 12.209.8 18.326.6 3.243-.108 6.499-.343 9.689-.823a62.34 62.34 0 0 0 14.808-4.143c4.247-1.783 8.389-3.76 12.57-5.663 2.888-1.308 5.882-2.377 9.026-3.114 3.695-.869 7.424-1.566 11.25-1.789 5.055-.291 10.102-.662 15.157-.908 3.768-.183 7.548-.166 11.323-.332 4.778-.211 9.478-.782 13.988-2.36 4.489-1.571 7.85-4.205 10.312-7.748 2.323-3.338 4.463-6.772 6.807-10.092 2.697-3.817 5.5-7.577 8.31-11.337 2.284-3.058 4.647-6.075 6.977-9.103 1.851-2.412 3.637-4.869 5.573-7.229 2.908-3.554 5.842-7.086 8.894-10.543 2.737-3.086 5.599-6.092 8.501-9.063 3.334-3.417 6.806-6.732 10.141-10.149 5.14-5.263 10.778-10.091 16.568-14.8 3.734-3.04 7.784-5.732 12.018-8.229 4.116-2.429 8.435-4.526 12.912-6.394 2.54-1.057 5.1-2.069 7.588-3.212.984-.451 1.864-1.137 2.645-1.846.61-.554.532-1.131-.105-1.662-.611-.515-1.3-.995-2.048-1.332-2.179-.977-4.523-1.526-6.938-1.886-3.637-.542-7.28-.931-10.982-.731a99.272 99.272 0 0 0-18.458 2.76c-5.133 1.269-10.266 2.589-15.143 4.526-5.455 2.171-10.929 4.314-16.364 6.531-4.923 2.012-9.78 4.126-14.69 6.16-5.678 2.349-11.382 4.658-17.073 6.989-3.538 1.446-7.043 2.943-10.608 4.349-2.737 1.08-5.5 2.108-8.303 3.046-3.381 1.131-6.768 2.262-10.234 3.16-3.236.84-6.518 1.577-9.898 1.96-3.912.44-7.792.68-11.684-.097-3.275-.658-5.612-2.326-7.188-4.886-1.417-2.309-1.929-4.858-2.678-7.343-1.07-3.572-1.995-7.183-3.183-10.726-.676-2.023-1.608-4-2.678-5.892-2.304-4.068-5.593-7.526-9.341-10.646-5.579-4.64-12.032-8.171-19.036-10.903-5.316-2.068-10.843-3.628-16.561-4.697-3.984-.743-7.988-1.331-12.031-1.549-6.689-.354-13.391-.222-20.014.755-5.835.857-11.572 2.126-17.152 3.863-4.536 1.411-8.96 3.063-13.318 4.851-6.006 2.475-11.802 5.257-17.067 8.806a56.146 56.146 0 0 0-10.233 8.84c-2.704 2.983-4.792 6.298-6.977 9.56-.906 1.355-1.957 2.652-3.086 3.881-.886.971-1.988.828-2.802-.212a4.448 4.448 0 0 1-.46-.766c-.768-1.543-1.01-3.183-1.247-4.84-.866-6.188.112-12.206 2.284-18.08 1.392-3.76 3.374-7.309 5.717-10.703a74.907 74.907 0 0 1 8.258-9.995c2.324-2.365 4.68-4.708 7.155-6.954 2.31-2.091 4.791-4.046 7.207-6.052 2.1-1.748 4.142-3.56 6.34-5.211 5.127-3.857 10.352-7.617 16.096-10.766 4.595-2.52 9.255-4.966 14.007-7.246 3.755-1.8 7.687-3.314 11.56-4.926 5.513-2.297 11.204-4.211 16.981-5.937 5.225-1.56 10.509-2.983 15.786-4.417a331.694 331.694 0 0 1 9.472-2.429c4.319-1.04 8.671-1.983 12.984-3.034 3.17-.772 6.301-1.652 9.452-2.474 5.494-1.44 10.844-3.166 15.878-5.589 3.486-1.68 6.656-3.737 9.406-6.252 3.657-3.337 7.398-6.588 11.402-9.611 3.42-2.583 6.735-5.286 10.247-7.772a442.514 442.514 0 0 1 14.9-10.097c5.356-3.469 10.798-6.835 16.292-10.138 4.345-2.617 8.848-5.04 13.239-7.594 6.262-3.64 12.465-7.349 18.734-10.983 6.82-3.954 13.679-7.863 20.532-11.777 2.554-1.457 5.127-2.886 7.339-4.743 2.218-1.863 3.905-3.949 4.181-6.737.25-2.498-1.437-4.99-3.932-5.63-1.726-.44-3.472-.44-5.251-.228-3.203.377-6.209 1.315-9.15 2.412-4.779 1.777-9.492 3.686-14.244 5.497-5.547 2.114-11.08 4.246-16.673 6.257a117.205 117.205 0 0 1-13.83 4.04c-3.23.726-6.492 1.355-9.734 2.023-3.02.623-6.033 1.269-9.052 1.88-3.348.674-6.702 1.292-10.05 1.972-3.531.714-7.056 1.463-10.581 2.2-5.33 1.114-10.66 2.246-15.996 3.348-3.624.749-7.241 1.503-10.877 2.189a891.921 891.921 0 0 1-12.334 2.206 1821.51 1821.51 0 0 1-13.633 2.308c-1.854.311-3.717.596-5.574.884-.334.052-.334.324.001.288 2.416-.275 4.831-.537 7.24-.834 3.026-.372 6.052-.72 9.065-1.166 3.105-.463 6.19-1.012 9.275-1.555 3.597-.634 7.201-1.268 10.785-1.965 3.492-.68 6.964-1.435 10.436-2.166 4.175-.874 8.343-1.76 12.518-2.64 2.317-.492 4.634-.994 6.958-1.457 3.538-.703 7.082-1.36 10.614-2.052 3.63-.708 7.266-1.4 10.883-2.16 5.054-1.063 10.115-2.097 15.123-3.297 5.468-1.314 10.798-3.023 16.089-4.823 5.323-1.811 10.66-3.611 16.023-5.337 2.776-.892 5.631-1.6 8.592-1.846.893-.074 1.818-.04 2.711.074 2.428.309 3.144 2.172 2.382 3.812-.978 2.114-2.586 3.806-4.489 5.251-3.801 2.892-7.667 5.732-11.632 8.452-3.932 2.697-7.988 5.252-12.045 7.812-3.164 2-6.38 3.942-9.623 5.851-4.627 2.714-9.36 5.303-13.941 8.069-6.781 4.091-13.535 8.217-20.185 12.469-5.756 3.685-11.408 7.508-16.994 11.394-3.348 2.326-6.525 4.852-9.708 7.354a289.888 289.888 0 0 0-8.855 7.252c-3.118 2.663-6.498 5.012-10.352 6.812-4.844 2.268-9.97 3.988-15.189 5.457-5.441 1.526-10.968 2.834-16.462 4.234-4.437 1.132-8.894 2.217-13.312 3.4a418.42 418.42 0 0 0-11.815 3.383c-3.965 1.189-7.936 2.377-11.829 3.732-4.201 1.463-8.349 3.057-12.465 4.697-2.776 1.103-5.513 2.291-8.165 3.606-4.017 1.988-8.008 4.034-11.894 6.211a165.796 165.796 0 0 0-10.181 6.218c-2.888 1.902-5.639 3.96-8.363 6.034-3.058 2.32-6.098 4.657-9.012 7.114-6.459 5.44-12.51 11.189-17.644 17.641-3.577 4.497-6.498 9.286-8.54 14.468-1.995 5.069-3.02 10.298-3.17 15.658-.118 4.263.256 8.492 1.621 12.6a13.364 13.364 0 0 0 1.858 3.617c.952 1.298 1.779 1.252 2.954.103.282-.274.531-.588.702-.925 1.024-2.012 2.068-4.012 3.013-6.052 1.536-3.309 3.124-6.594 5.185-9.697a42.111 42.111 0 0 1 9.971-10.521c5.133-3.828 10.844-6.903 16.856-9.571 4.083-1.812 8.232-3.497 12.557-4.812 3.781-1.148 7.556-2.348 11.422-3.234 3.958-.909 7.988-1.594 12.091-1.954a100.499 100.499 0 0 1 19.889.217 83.28 83.28 0 0 1 16.502 3.548c6.439 2.086 12.458 4.801 17.913 8.446 4.155 2.777 7.752 6.006 10.66 9.806 2.271 2.966 3.905 6.172 4.745 9.669.723 3.006 1.399 6.023 2.094 9.04.716 3.097 1.444 6.189 2.127 9.292.387 1.765.972 3.457 1.897 5.068 1.733 3.018 4.628 4.692 8.284 5.429 3.984.8 8.008.549 11.946-.189 3.447-.645 6.853-1.474 10.207-2.417 3.44-.965 6.827-2.108 10.181-3.291 3.046-1.075 6.039-2.275 9.026-3.475a372.451 372.451 0 0 0 8.507-3.542c3.466-1.486 6.892-3.041 10.358-4.509 3.899-1.657 7.837-3.24 11.743-4.886a8779.89 8779.89 0 0 0 21.989-9.303c4.628-1.966 9.321-3.806 14.159-5.331 2.783-.875 5.573-1.761 8.428-2.406 3.459-.783 6.971-1.377 10.489-1.943 3.44-.554 6.919-.863 10.417-.572 1.707.143 3.42.389 5.068.783 2.77.663 3.183 2.32 1.057 3.995a40.625 40.625 0 0 1-3.44 2.428c-2.849 1.806-5.763 3.537-8.599 5.355-6.15 3.943-12.025 8.183-17.395 12.92-4.752 4.194-9.393 8.491-14.027 12.789a485.011 485.011 0 0 0-9.432 9.023 816.81 816.81 0 0 0-10.634 10.588c-1.89 1.921-3.669 3.932-5.494 5.903-2.422 2.618-4.851 5.235-7.26 7.863-3.032 3.315-6.026 6.652-9.058 9.966-3.262 3.572-6.518 7.155-9.826 10.698-2.554 2.737-5.107 5.486-7.805 8.114-2.442 2.377-5.625 3.777-9.111 4.692-4.903 1.285-9.958 1.52-15.012 1.714-3.341.126-6.695.12-10.03.331-4.325.275-8.644.583-12.885 1.589a34.003 34.003 0 0 0-11.513 5.097c-4.162 2.846-8.133 5.903-12.695 8.298-3.695 1.942-7.535 3.594-11.69 4.622a53.627 53.627 0 0 1-9.137 1.452c-5.363.389-10.72.274-16.03-.274-4.161-.429-8.277-1.235-12.393-1.949-5.192-.897-10.364-1.886-15.556-2.8a45.187 45.187 0 0 0-11.415-.554c-1.648.131-3.295.514-4.87.96-2.974.845-5.58 2.331-8.12 3.886-4.805 2.948-9.321 6.2-13.588 9.725-4.824 3.989-9.4 8.161-12.793 13.183-.65.955-1.136 2.023-1.503 3.086-.447 1.28.348 2.132 1.877 2.115.9-.012 1.831-.069 2.685-.292 2.415-.64 4.811-1.331 7.187-2.074 5.691-1.789 11.35-3.669 17.06-5.412 3.013-.92 6.078-1.748 9.177-2.411 3.794-.812 7.64-1.474 11.493-2.057 3.295-.503 6.617-.926 9.978-.755 2.907.149 5.822.292 8.717.532 4.135.343 8.27.726 12.392 1.171 2.843.303 5.685.652 8.488 1.143 2.848.503 5.658 1.183 8.467 1.84 4.739 1.109 9.078 2.989 13.194 5.28a67.689 67.689 0 0 1 8.855 5.903c3.964 3.115 7.883 6.275 11.835 9.4 1.831 1.446 3.603 2.978 5.599 4.24 2.632 1.663 5.704 2.389 8.94 2.766 3.558.417 7.083.24 10.568-.234 2.96-.4 5.855-1.166 8.783-1.76 4.43-.897 8.677-2.28 12.878-3.737 6.105-2.12 12.091-4.503 18.156-6.715 5.009-1.828 10.01-3.685 15.111-5.308 4.201-1.338 8.493-2.52 12.839-3.446 5.094-1.086 10.279-1.869 15.557-2.04 4.614-.149 9.15.148 13.574 1.411 4.03 1.149 7.673 2.932 11.198 4.932 2.639 1.497 5.212 3.08 7.805 4.634 5.697 3.423 11.29 6.949 15.832 11.572 2.481 2.526 5.166 4.903 7.483 7.537 4.956 5.634 9.052 11.703 11.5 18.532.867 2.417 1.188 4.874.755 7.389-.335 1.948-1.785 2.474-3.505 1.211-1.057-.771-1.989-1.663-2.967-2.509-2.363-2.051-4.667-4.148-7.083-6.148-3.505-2.897-7.397-5.355-11.5-7.572-3.446-1.863-6.997-3.549-10.784-4.84-3.026-1.034-6.151-1.76-9.348-2.297-5.54-.926-11.027-.806-16.469.463-4.772 1.114-8.769 3.4-12.327 6.32-3.052 2.508-5.973 5.12-8.592 7.989-3.532 3.868-7.148 7.68-10.64 11.577a335.767 335.767 0 0 0-8.31 9.674c-3.433 4.138-6.853 8.292-10.148 12.521-2.514 3.228-4.891 6.543-7.221 9.88a625.848 625.848 0 0 0-8.861 13.086c-1.687 2.554-3.19 5.2-4.858 7.76a12.608 12.608 0 0 1-3.833 3.817c-2.547 1.623-5.448 1.88-8.468 1.646-3.078-.24-5.979-1.103-8.769-2.177-4.89-1.898-9.419-4.378-13.883-6.926-4.628-2.64-9.222-5.326-13.87-7.943-3.4-1.914-6.866-3.749-10.292-5.635-4.549-2.502-9.117-4.994-13.627-7.548-3.676-2.086-7.293-4.252-10.922-6.4-3.309-1.96-6.486-4.092-10.175-5.521-1.181-.457-2.389-.851-3.715-.794-1.129.052-1.68.457-1.792 1.435a4.812 4.812 0 0 0 .118 1.731c.256.971.565 1.937.965 2.869 1.707 3.96 3.486 7.891 4.713 12 1.136 3.788 1.989 7.611 2.626 11.48.617 3.743 1.188 7.497 1.93 11.223.669 3.366 1.778 6.635 3.649 9.663 1.648 2.663 3.328 5.32 5.114 7.915 3.36 4.88 6.373 9.92 9.294 15 2.639 4.594 5.271 9.2 7.936 13.783 1.943 3.349 4.28 6.486 7.273 9.194 4.194 3.795 8.5 7.498 12.76 11.235 2.757 2.417 5.593 4.76 8.258 7.246 3.912 3.646 7.509 7.52 10.666 11.703 3.716 4.926 6.794 10.103 8.632 15.794 1.359 4.206 1.956 8.498 1.129 12.841-1.336 6.989-8.215 10.977-15.33 10.977h-56.172c-.256 0-.421-.412-.17-.469 1.063-.234 2.14-.417 3.216-.605 4.352-.766 8.737-1.4 13.043-2.315 5.238-1.114 10.325-2.657 15.176-4.765 3.144-1.366 6.019-3.012 8.448-5.246 5.054-4.646 6.511-10.126 4.929-16.252-1.057-4.109-3.315-7.777-6.177-11.143-3.82-4.492-8.342-8.423-13.114-12.137-4.228-3.292-8.573-6.475-12.787-9.783-3.367-2.652-6.499-5.509-8.901-8.909-3.256-4.606-5.835-9.515-8.448-14.412a584.021 584.021 0 0 1-4.601-8.846c-1.103-2.16-2.232-4.32-3.171-6.537-1.122-2.652-1.234-5.44-1.175-8.246.112-5.383 1.385-10.657 1.943-16 .178-1.737.571-3.469.631-5.212.098-3.2.151-6.411-.02-9.611-.118-2.189-.499-4.395-1.024-6.543-.532-2.189-1.293-4.343-2.12-6.458-1.142-2.914-2.711-5.663-4.477-8.331-1.168-1.76-2.291-3.555-3.262-5.4-.506-.96-.775-2.057-.9-3.115-.183-1.542.545-2.485 2.245-2.908 1.123-.28 2.363-.486 3.512-.372 1.884.183 3.781.52 5.586 1.018 5.12 1.394 9.833 3.611 14.598 5.702 4.516 1.983 8.973 4.063 13.522 5.995 6.945 2.948 13.929 5.823 20.913 8.686 4.188 1.714 8.448 3.268 12.938 4.308 3.814.886 7.64 1.509 11.598.806 2.744-.491 5.166-1.554 7.004-3.389 4.411-4.417 8.75-8.891 13.095-13.354 2.436-2.503 4.845-5.029 7.26-7.549 2.166-2.263 4.326-4.537 6.499-6.8 2.875-2.994 5.828-5.931 8.638-8.971 4.089-4.435 8.139-8.909 12.091-13.441 1.844-2.114 3.472-4.371 5.093-6.617.65-.903 1.097-1.943 1.49-2.96.637-1.64-.144-2.652-2.126-2.674-1.182-.018-2.416.085-3.538.377-2.37.617-4.7 1.36-7.017 2.108-4.346 1.406-8.448 3.28-12.531 5.16-3.498 1.612-6.938 3.315-10.397 4.978-3.965 1.908-7.93 3.823-11.901 5.726-4.673 2.245-9.347 4.491-14.034 6.725-3.301 1.578-6.59 3.172-9.938 4.675-2.369 1.063-4.758 2.148-7.259 2.931-5.127 1.617-10.477 1.84-15.846 1.24-4.306-.48-8.592-1.114-12.859-1.8-4.312-.691-8.592-1.543-12.898-2.286-3.656-.628-7.306-1.28-10.988-1.754-4.582-.594-9.196-1.006-13.785-1.526-1.181-.137-2.363-.32-3.498-.628-1.805-.486-2.14-1.28-1.307-2.755.145-.257.342-.497.519-.742.591-.806 1.162-1.618 1.772-2.412 1.188-1.537 1.792-3.291 2.573-4.983 1.169-2.543 2.377-5.074 3.499-7.629.302-.685.538-1.457.512-2.182-.092-2.618-.171-5.241-.512-7.841-.348-2.64-.958-5.251-1.536-7.863-.223-1.011-.545-2.04-1.063-2.96-1.136-2.023-3.144-3.274-5.409-4.268-2.993-1.32-6.236-1.869-9.498-2.212-7.864-.834-15.655-.217-23.329 1.4-3.938.829-7.778 1.96-11.546 3.286-4.562 1.606-9.038 3.349-13.121 5.777-3.131 1.863-5.914 4.046-8.218 6.686-2.147 2.463-3.794 5.149-5.173 8-1.969 4.092-3.275 8.338-4.05 12.692-.702 3.989-1.057 8.017-.938 12.069.026.914.026 1.834-.027 2.748-.065 1.12-.17 2.24-.302 3.36-.078.669-.275 1.366-1.07 1.658-.833.302-1.503-.178-2.054-.618-.696-.56-1.372-1.177-1.89-1.868-2.646-3.537-4.536-7.383-6-11.4-1.667-4.583-2.534-9.303-2.993-14.075-.735-7.6-.204-15.12 2.166-22.509a49.44 49.44 0 0 1 4.024-9.177c3.163-5.617 7.548-10.48 12.602-14.869 4.011-3.486 8.16-6.869 12.38-10.166a146.771 146.771 0 0 1 21.38-13.92c5.421-2.892 11.27-3.743 17.473-2.995 4.023.486 7.949 1.366 11.841 2.372 4.798 1.246 9.57 2.554 14.388 3.749 4.543 1.12 9.131 2.085 13.824 2.657 3.61.44 7.214.748 10.857.623 5.54-.189 10.883-1.138 15.944-3.166 5.369-2.154 9.899-5.292 13.89-9.035 2.822-2.645 5.507-5.405 8.283-8.085 2.12-2.046 4.497-3.818 7.286-5.178 2.934-1.428 6.072-2.405 9.242-3.297 3.584-1.006 7.208-1.909 10.811-2.874 3.952-1.057 7.766-2.429 10.824-4.909 4.53-3.674 8.934-7.469 13.332-11.269a157.71 157.71 0 0 0 6.689-6.143c3.984-3.857 7.962-7.731 11.835-11.674 2.573-2.617 5.021-5.332 7.43-8.069 2.258-2.571 4.569-5.126 6.183-8.074.388-.703.729-1.463.841-2.229.236-1.583-.466-2.211-2.318-2.274a4.277 4.277 0 0 0-.715.028c-1.077.172-2.166.315-3.223.555-2.914.662-5.691 1.674-8.408 2.794-4.523 1.863-9.026 3.766-13.529 5.669-2.573 1.085-5.126 2.2-7.693 3.303-3.544 1.525-7.069 3.097-10.64 4.571a249.563 249.563 0 0 1-9.393 3.663 620.334 620.334 0 0 1-12.846 4.537c-2.882.983-5.842 1.8-8.704 2.817-2.731.972-5.133 2.406-6.826 4.56-1.438 1.835-2.442 3.881-3.118 5.995-.998 3.12-1.766 6.291-2.6 9.446-1.083 4.126-1.969 8.286-3.702 12.274-1.601 3.686-3.571 7.155-6.479 10.183-2.559 2.669-5.704 4.658-9.478 5.823-4.792 1.48-9.577 1.235-14.329-.183-5.777-1.725-10.47-4.897-14.822-8.497-2.98-2.463-5.829-5.04-8.178-7.989-1.878-2.348-3.854-4.657-5.449-7.154-2.428-3.806-4.608-7.743-6.82-11.652a140.7 140.7 0 0 1-7.443-15.223c-1.004-2.423-1.976-4.863-2.731-7.348-.912-3.006-1.601-6.069-2.35-9.115-.341-1.383-.65-2.771-.86-4.177-.38-2.6-.59-5.217-1.017-7.806-.683-4.114-1.017-8.269-2.18-12.32-.695-2.429-1.47-4.818-3.183-6.88-2.186-2.623-5.198-4.035-8.868-4.195-4.778-.205-8.855 1.412-12.366 4.137-3.355 2.612-5.514 5.943-7.03 9.561-1.582 3.765-2.364 7.703-2.442 11.726-.086 4.091.453 8.12 1.372 12.143 1.063 4.685 3.163 8.966 5.986 12.994 2.153 3.08 4.483 6.069 6.84 9.04 2.468 3.109 5.126 6.103 7.568 9.218 2.232 2.84 4.332 5.765 6.406 8.697.591.834.952 1.811 1.267 2.766.322.977-.302 1.634-1.457 1.68a6.546 6.546 0 0 1-1.562-.137c-2.862-.618-5.455-1.755-7.811-3.275-3.315-2.143-6.079-4.788-8.796-7.463-2.796-2.748-5.73-5.331-9.269-7.371-2.264-1.309-4.542-2.612-6.688-4.063-5.606-3.8-10.09-8.486-13.548-13.863-3.525-5.475-6.532-11.178-8.593-17.206-.965-2.823-1.838-5.686-2.441-8.578-.959-4.594-1.241-9.263-1.267-13.92-.033-6.12.275-12.217 1.857-18.229 1.018-3.868 2.436-7.611 4.424-11.16 1.589-2.829 3.407-5.572 5.284-8.263 1.68-2.406 3.506-4.743 5.396-7.029 3.656-4.428 7.943-8.406 12.445-12.171a375.725 375.725 0 0 1 15.11-12.001 185.578 185.578 0 0 1 12.105-8.354c3.617-2.297 7.47-4.309 11.237-6.423 5.698-3.2 11.606-6.092 17.743-8.577 7.043-2.858 14.159-5.566 21.313-8.212 5.265-1.949 10.601-3.743 15.951-5.503 5.264-1.731 10.496-3.514 15.609-5.566 4.3-1.725 8.501-3.594 12.262-6.108 3.019-2.018 5.888-4.218 8.782-6.378 4.05-3.028 8.067-6.091 12.098-9.143 3.347-2.537 6.721-5.04 10.023-7.623 2.763-2.165 5.507-4.371 7.575-7.103a6.86 6.86 0 0 0 1.083-2.137c.249-.806-.217-1.508-1.136-1.766-.846-.24-1.772-.457-2.645-.422-2.383.097-4.805.142-7.122.56a236.45 236.45 0 0 0-13.627 2.851c-4.22 1.017-8.395 2.211-12.544 3.446a373.515 373.515 0 0 0-13.016 4.148c-3.774 1.28-7.483 2.703-11.211 4.086-2.541.943-5.055 1.943-7.595 2.897-3.197 1.2-6.426 2.326-9.59 3.589-5.724 2.292-11.539 4.372-17.519 6.086-3.256.931-6.564 1.76-9.879 2.509-2.586.582-5.205 1.097-7.844 1.417-3.637.44-7.306.771-10.975.96-7.135.365-14.23.12-21.182-1.56-3.761-.909-7.319-2.16-10.319-4.4-1.3-.972-2.527-2.018-3.82-3-1.11-.85-2.55-.448-2.745.936a4.77 4.77 0 0 0-.045.595c-.052 3.011 1.55 5.337 4.05 7.257 3.433 2.635 7.634 3.852 11.973 4.755 1.943.405 3.932.674 5.92.891 3.125.337 6.263.692 9.407.834 6.511.303 13.003-.125 19.429-1.045 4.897-.703 9.741-1.652 14.625-2.429 1.917-.303 3.873-.469 5.816-.617.385-.03.808-.057 1.204.059.564.165.698.984.24 1.352-.729.595-1.438 1.246-2.291 1.68-3.216 1.623-6.433 3.246-9.734 4.726-3.86 1.726-7.798 3.315-11.717 4.937-6.545 2.715-13.18 5.235-19.955 7.486-2.849.943-5.724 1.863-8.651 2.583-2.659.652-5.383 1.24-8.12 1.463-6.275.514-12.498-.137-18.668-1.154-2.488-.406-4.975-.817-7.47-1.166-4.056-.56-8.12-1.074-12.176-1.594-1.982-.257-3.971-.532-5.96-.715-3.427-.32-6.807-.811-10.082-1.782-4.359-1.298-7.47-3.675-8.494-7.703-.578-2.275-.86-4.595-.584-6.943.492-4.218 1.017-8.441 1.417-12.664.237-2.468-.091-4.903-1.266-7.2-1.904-3.725-5.14-6.56-8.409-9.36-.68-.58-1.339-1.18-1.338-2.074.023-29.02.025-58.012.025-87.006C.026 4.797 4.824 0 10.742 0h4.712c.4 0 .695.268 1.022.497 2.619 1.794 5.185 3.657 7.903 5.337 3.36 2.08 6.99 3.732 11.132 4.32 4.438.635 8.619-.034 12.59-1.88 2.173-1.011 4.063-2.331 5.79-3.828C56.725 1.999 60.299 0 64.043 0h144.675c.965 0 1.793.92 1.468 1.829-.886 2.457-2.376 4.605-4.431 6.463-2.323 2.103-5.028 3.645-8.264 4.497-4.312 1.131-8.717.943-13.088.577-4.995-.417-9.84-1.572-14.638-2.857-4.326-1.166-8.678-2.257-13.016-3.395-3.801-.994-7.68-1.68-11.612-2.125-7.923-.892-15.734-.326-23.434 1.474-3.872.903-7.64 2.074-11.336 3.446a98 98 0 0 0-16.023 7.646c-4.496 2.674-8.67 5.714-12.563 9.028-4.096 3.486-8.1 7.058-11.389 11.166-1.135 1.423-2.172 2.938-2.966 4.52-.782 1.555.19 2.538 2.146 2.355.991-.092 1.989-.28 2.927-.566 3.604-1.086 7.175-2.257 10.779-3.343a969.531 969.531 0 0 1 15.176-4.463c4.01-1.137 8.165-1.743 12.346-2.074 4.818-.383 9.617-.297 14.422.451 5.277.829 10.075 2.56 14.342 5.303 3.249 2.097 6.288 4.446 9.367 6.743 4.345 3.246 8.592 6.583 12.957 9.806 2.869 2.12 6.105 3.76 9.82 4.417 3.177.56 6.4 1.029 9.623 1.217 7.516.429 14.992-.331 22.449-1.034 3.223-.303 6.432-.76 9.629-1.24 5.547-.828 11.087-1.714 16.62-2.594 3.098-.492 6.19-1.017 9.282-1.532 3.886-.645 7.785-1.257 11.664-1.954 2.941-.531 5.862-1.149 8.783-1.772 3.052-.65 6.143-1.217 9.124-2.074a115.658 115.658 0 0 0 10.115-3.423c3.958-1.543 7.903-3.148 11.664-5.023 4.667-2.331 9.196-4.886 13.666-7.491 5.12-2.983 9.951-6.298 14.073-10.332 2.383-2.326 4.864-4.577 7.181-6.948 2.685-2.755 5.186-5.64 7.858-8.4 2.094-2.166 4.411-4.138 7.41-5.39 3.604-1.497 6.236-.834 8.671 1.138 2.107 1.703 3.433 3.868 4.444 6.171 1.805 4.103 2.672 8.412 3.151 12.76.512 4.68.637 9.39.427 14.092-.151 3.452-.309 6.903-.44 10.355-.236 6.36.939 12.508 3.715 18.4a101.801 101.801 0 0 0 7.371 13.058c3.617 5.422 7.392 10.76 11.54 15.891 2.356 2.915 4.89 5.726 7.496 8.475 1.136 1.2 2.56 2.245 4.03 3.148 3.007 1.84 6.486 2.44 10.083 2.229 2.468-.149 4.962-.429 7.345-.972 6.183-1.4 12.294-3.017 18.464-4.463 5.173-1.211 10.431-1.685 15.741-.748 2.264.4 4.385 1.148 6.058 2.623a6.08 6.08 0 0 1 2.048 4.574v5.506c0 .64-.272 1.222-.61 1.766-.761 1.245-1.438 2.537-2.271 3.737-2.278 3.286-5.133 6.206-8.074 9.034-2.875 2.76-5.986 5.338-9.078 7.926-.585.49-1.186 1.018-1.981 1.404-.579.281-1.205-.375-.848-.912.715-1.08 1.444-2.155 2.245-3.183 2.566-3.315 4.897-6.737 6.485-10.509.565-1.337.84-2.731.683-4.166-.237-2.194-1.956-3.737-4.431-4.131-3.38-.537-6.649-.069-9.912.663-3.794.857-7.417 2.137-11.086 3.314-2.731.874-5.455 1.794-8.258 2.44-4.122.949-8.316 1.389-12.629.909a32.507 32.507 0 0 1-9.012-2.32c-4.831-2.035-8.835-5.058-12.636-8.286-3.407-2.898-6.708-5.892-10.023-8.869-2.455-2.2-4.825-4.474-7.299-6.663-2.304-2.04-4.687-4.017-7.057-6.006-2.205-1.851-4.706-3.383-7.286-4.806-2.973-1.64-6.196-2.708-9.728-3.085-4.056-.429-8.014.074-11.933.88-4.811.988-9.314 2.708-13.561 4.885-5.278 2.703-10.089 5.983-14.723 9.446a98.401 98.401 0 0 0-13.22 11.875c-3.532 3.806-6.525 7.863-8.199 12.589-.873 2.462-1.148 4.948-1.037 7.508.099 2.315.913 4.497 1.503 6.72 1.228 4.595-.295 8.429-3.991 11.743-3.551 3.195-7.994 5.092-12.721 6.486a78.81 78.81 0 0 1-14.926 2.857c-4.562.429-9.118.892-13.693 1.172-5.815.36-11.644.526-17.467.829-4.056.211-8.113.411-12.149.782a777.04 777.04 0 0 0-18.918 2c-3.308.389-6.597.92-9.866 1.515-2.848.514-5.645 1.24-8.48 1.806-3.958.788-7.805 1.891-11.632 3.051-5.369 1.634-10.548 3.634-15.609 5.886-3.656 1.628-7.155 3.486-10.358 5.726-1.785 1.245-3.499 2.548-4.759 4.263-1.122 1.525-.4 2.691 1.589 3.125.919.2 1.883.332 2.829.326 5.592-.023 11.185-.051 16.777-.16 6.656-.126 13.299.154 19.909.703 5.218.434 10.43 1.143 15.583 1.989 4.634.76 9.222 1.777 13.765 2.88 4.128 1.005 8.172 2.274 12.248 3.434 6.347 1.811 12.478 4.126 18.583 6.457 4.929 1.886 9.741 4 14.605 6.017 3.61 1.498 7.2 3.046 10.837 4.492 3.118 1.24 6.242 2.497 9.459 3.526 3.584 1.143 7.371 1.36 11.165 1.211 5.258-.206 10.476-.748 15.609-1.771a249.807 249.807 0 0 0 12.465-2.8c5.678-1.44 11.29-3.063 16.955-4.543a674.551 674.551 0 0 1 14.434-3.606c5.068-1.206 10.221-2.069 15.413-2.76 4.122-.549 8.264-.834 12.412-.932 7.188-.171 14.316.309 21.373 1.589 4.772.869 9.458 1.972 14.014 3.48 5.172 1.714 10.167 3.749 14.854 6.36 5.186 2.897 9.833 6.32 13.935 10.298 3.939 3.817 7.175 8.085 10.017 12.566a74.807 74.807 0 0 1 8.035 17.143 77.129 77.129 0 0 1 2.605 10.468c.617 3.561.841 7.115.644 10.698-.105 1.92-.46 3.811-1.3 5.594-.63 1.332-1.818 1.452-2.816.292a22.154 22.154 0 0 1-1.903-2.629c-2.029-3.24-3.991-6.514-6.039-9.754-3.44-5.446-7.556-10.463-12.479-14.984-3.629-3.331-7.62-6.263-12.235-8.52a38.29 38.29 0 0 0-8.901-3.051c-4.877-1.029-9.833-1.132-14.802-.52-5.454.674-10.528 2.308-15.307 4.651-5.297 2.595-9.669 6.183-13.81 9.995-1.97 1.811-3.689 3.8-5.304 5.868-2.389 3.058-4.26 6.275-4.989 9.966-.768 3.886.683 8.098 5.14 10.572 3 1.663 6.183 2.96 9.511 3.983 3.236.994 6.505 1.897 9.794 2.766 4.023 1.057 7.929 2.337 11.71 3.965 6.006 2.589 10.916 6.178 14.381 11.212 2.528 3.669 3.998 7.629 4.32 11.886.347 4.503-.578 8.863-2.291 13.097-1.188 2.943-2.711 5.76-4.405 8.503-2.796 4.532-5.671 9.029-8.48 13.561-1.576 2.531-2.731 5.205-3.335 8.051-.505 2.395-.026 4.652 1.352 6.737.972 1.475 2.101 2.875 3.158 4.303 2.533 3.423 4.844 6.961 6.859 10.635 1.503 2.731 2.829 5.537 4.234 8.303 2.048 4.034 3.689 8.2 5.113 12.417 1.175 3.463 2.009 7.012 2.875 10.549.309 1.246.289 2.56.381 3.84.08 1.1-1.509 1.158-2.212.309a25.417 25.417 0 0 1-1.923-2.623c-2.784-4.36-5.757-8.623-9.111-12.663-2.593-3.126-5.337-6.166-8.074-9.2-4.03-4.458-8.697-8.383-13.548-12.149-2.632-2.04-5.291-4.069-7.739-6.269-3.676-3.297-5.737-7.337-6.157-11.92-.256-2.817-.118-5.657-.243-8.486-.059-1.451-.236-2.897-.46-4.337-.387-2.486-2.402-3.709-4.903-4.343-2.77-.703-5.638-.852-8.526-.634-3.808.285-7.569.765-11.323 1.468-5.055.949-9.965 2.263-14.809 3.777-4.483 1.4-8.868 3.058-13.338 4.498a933.612 933.612 0 0 1-18.576 5.771 131.686 131.686 0 0 1-9.597 2.48 136.466 136.466 0 0 1-14.9 2.434c-5.671.606-11.244.412-16.771-.851-5.487-1.251-10.975-2.531-16.489-3.697-3.019-.64-6.117-.977-9.235-.863-1.267.046-2.58.229-3.775.577-1.516.446-1.824 1.297-1.207 2.572.144.302.308.617.544.868 1.057 1.12 2.002 2.354 3.236 3.309 3.959 3.057 7.995 6.04 12.052 9 2.402 1.754 5.304 2.64 8.323 3.137 4.221.697 8.501.537 12.708-.051 3.617-.509 7.194-1.297 10.745-2.12 3.04-.703 6.006-1.635 9.013-2.446 4.549-1.234 9.104-2.457 13.653-3.68 4.102-1.103 8.198-2.223 12.307-3.292a435.838 435.838 0 0 1 10.457-2.588c2.35-.549 4.719-1.057 7.109-1.452 2.435-.4 4.91-.645 7.365-.943a33.223 33.223 0 0 1 6.865-.12c4.385.383 8.219 1.829 11.317 4.566 2.205 1.949 4.28 4.017 6.406 6.04 2.219 2.109 4.293 4.355 6.689 6.303 3.551 2.886 7.312 5.589 11.028 8.32a69.742 69.742 0 0 1 8.5 7.383c4.404 4.492 8.553 9.143 12.051 14.224 3.768 5.474 6.971 11.148 9.105 17.268 1.345 3.858 2.028 7.772 1.765 11.806-.249 3.823-1.805 7.195-4.437 10.212-2.343 2.68-5.258 4.829-8.54 6.554-3.669 1.932-7.469 3.669-11.185 5.532-3.262 1.634-6.518 3.286-9.701 5.023-2.14 1.166-4.162 2.497-6.223 3.766-.335.206-.662.401-1.055.444-.407.044-.75-.447-.52-.787.86-1.337 1.628-2.737 2.652-3.972 2.507-3.028 5.159-5.971 7.706-8.977 1.562-1.851 2.776-3.886 3.531-6.086 1.352-3.943.932-7.794-.965-11.554-2.251-4.469-5.894-7.926-10.338-10.772a36.157 36.157 0 0 0-11.375-4.823c-3.145-.737-6.295-1.046-9.485-.371-2.508.525-4.838 1.417-6.361 3.337-2.206 2.777-1.995 5.72-.473 8.657.978 1.892 2.731 3.195 4.805 4.115 2.206.982 4.47 1.868 6.741 2.725 2.285.863 4.503 1.817 6.499 3.115 2.212 1.44 4.089 3.171 5.08 5.434 1.156 2.634.86 5.297-.21 7.932-1.011 2.48-2.494 4.754-3.945 7.04-2.258 3.56-4.621 7.074-6.295 10.886-.984 2.245-2.008 4.491-2.743 6.8-.893 2.794-1.648 5.64-2.199 8.503-.729 3.771-1.274 7.571-1.773 11.366-.525 4.006-.945 8.028-2.389 11.886-.623 1.668-1.536 3.2-2.875 4.548-1.831 1.846-4.102 3.229-6.308 4.669-3.321 2.16-6.715 4.229-10.128 6.28-3.774 2.269-7.778 4.194-11.894 5.943-5.77 2.446-11.92 3.966-18.025 5.594-1.772.475-3.59.886-5.179 1.772-1.437.8-1.516 1.691-.302 2.726 1.464 1.251 3.256 2.023 5.114 2.68 2.435.863 4.975 1.4 7.548 1.897 5.698 1.103 11.454 1.28 17.25 1.023 4.155-.183 8.291-.492 12.4-1.097 4.654-.692 9.36-1.143 14.001-1.92 4.962-.829 9.859-1.938 14.526-3.703 3.86-1.463 7.266-3.498 10.049-6.246 3.499-3.452 5.429-7.589 6.551-12.029 1.162-4.606 1.464-9.309 1.989-13.983.388-3.4.952-6.76 2.35-9.972 1.28-2.943 3.308-5.394 6.164-7.337 3.21-2.183 6.925-3.314 10.857-3.926 5.743-.891 11.526-.651 17.289-.194 2.33.183 4.641.509 6.965.771 2.842.326 5.684.623 8.52.983 4.404.56 8.802 1.029 13.272.526 4.477-.509 8.435-2.011 11.934-4.474 2.809-1.978 4.988-4.452 7.095-6.966 3.492-4.166 7.142-8.218 11.461-11.772.674-.553 1.482-.989 2.229-1.478.013-.008.029.001.029.015Z" style="mix-blend-mode:overlay"/>
</svg>