<svg width="451" height="617" viewBox="0 0 451 617" fill="none" xmlns="http://www.w3.org/2000/svg">
<rect width="451" height="617" rx="20" fill="#FAE2BF"/>
<g style="mix-blend-mode:overlay">
<path d="M451 468.597V596.971C451 608.017 442.046 616.971 431 616.971H391.222C387.067 616.971 383.16 615.234 380.155 612.366C377.201 609.537 374.293 606.668 371.805 603.514C369.094 600.068 367.329 596.2 365.491 592.371C364.165 589.617 362.891 586.839 361.513 584.102C360.594 582.279 359.137 580.839 357.187 579.736C354.26 578.085 351.03 577.091 347.682 576.388C342.366 575.268 336.937 574.856 331.489 574.725C324.846 574.565 318.197 574.536 311.554 574.416C304.386 574.291 297.212 574.216 290.051 573.948C284.707 573.748 279.377 573.188 274.159 572.131C270.076 571.308 266.039 570.302 262.016 569.262C257.762 568.165 253.673 566.668 249.596 565.148C244.936 563.405 240.512 561.285 236.226 558.942C231.093 556.136 226.183 553.033 221.575 549.599C218.352 547.199 215.149 544.764 212.136 542.17C209.228 539.661 206.537 536.958 203.819 534.284C200.209 530.736 196.96 526.941 193.907 523.021C191.984 520.552 190.107 518.044 188.335 515.49C185.801 511.832 183.333 508.135 180.937 504.404C179.683 502.449 178.541 500.426 177.944 498.226C177.701 497.335 177.425 496.346 178.377 495.655C179.257 495.021 180.281 495.369 181.239 495.661C185.25 496.883 188.755 498.895 192.161 501.032C197.852 504.598 203.478 508.244 209.129 511.861C215.181 515.735 221.568 519.135 228.368 521.895C235.136 524.638 242.192 526.633 249.61 527.638C256.121 528.524 262.567 528.49 268.914 526.878C271.422 526.244 273.916 525.484 276.286 524.524C280.848 522.678 284.937 520.152 288.738 517.284C292.624 514.358 296.03 511.072 298.82 507.307C300.737 504.712 301.971 501.901 302.338 498.838C302.85 494.512 301.839 490.409 299.778 486.466C298.498 484.009 297.291 481.529 296.109 479.032C293.963 474.494 291.554 470.089 288.521 465.929C286.342 462.934 285.154 459.609 285.108 456.026C285.042 451.311 286.204 446.78 288.003 442.368C289.519 438.642 291.468 435.088 293.621 431.614C295.571 428.465 297.691 425.431 300.146 422.551C304.518 417.419 310.412 415.065 317.626 414.882C323.238 414.739 328.502 415.951 333.55 417.956C340.318 420.642 346.278 424.316 351.24 429.157C354.857 432.682 357.423 436.711 358.428 441.42C359.124 444.677 358.953 447.871 357.699 451.014C357.273 452.071 356.8 453.117 356.406 454.186C356.117 454.969 356.795 455.902 357.621 455.773C357.957 455.721 358.319 455.596 358.894 455.368C362.451 453.968 365.563 451.997 368.412 449.7C373.203 445.837 375.455 440.991 375.573 435.379C375.665 431.082 374.444 426.979 372.685 422.996C370.499 418.048 367.499 413.476 364.211 409.03C361.703 405.642 358.927 402.413 355.914 399.35C351.739 395.104 347.138 391.247 342.077 387.807C338.998 385.71 335.926 383.601 332.848 381.51C328.863 378.801 325.181 375.767 320.809 373.493C316.766 371.39 312.46 370.058 307.727 369.893C304.57 369.784 301.413 369.75 298.288 370.235C294.442 370.83 290.595 371.464 286.768 372.167C284.629 372.561 282.515 373.104 280.408 373.641C277.251 374.453 274.093 375.264 270.975 376.173C267.766 377.11 264.589 378.127 261.425 379.173C257.723 380.396 254.067 381.71 250.364 382.933C245.822 384.436 241.293 385.973 236.692 387.327C233.764 388.184 230.718 388.756 227.712 389.407C223.61 390.293 219.441 390.682 215.214 390.602C210.403 390.51 205.992 389.361 202.139 386.813C200.13 385.481 198.207 384.047 196.218 382.687C190.816 378.99 185.433 375.287 179.519 372.201C175.909 370.321 172.207 368.63 168.209 367.47C163.523 366.104 158.639 365.555 153.788 364.875C152.659 364.715 151.517 364.584 150.381 364.464C146.778 364.087 143.168 363.772 139.571 363.332C135.271 362.812 130.972 362.235 126.692 361.595C120.857 360.727 115.034 359.812 109.219 358.852C108.063 358.664 106.928 358.264 105.858 357.829C104.873 357.429 104.775 356.635 105.602 356.024C106.206 355.578 106.915 355.109 107.663 354.955C109.79 354.515 111.949 354.075 114.115 353.921C119.714 353.515 125.3 354.058 130.854 354.555C136.958 355.098 143.063 355.355 149.18 355.155C152.423 355.047 155.679 354.812 158.869 354.332C164.008 353.555 168.977 352.161 173.677 350.189C177.924 348.406 182.066 346.429 186.247 344.526C189.135 343.218 192.129 342.149 195.273 341.412C198.968 340.543 202.697 339.846 206.523 339.623C211.578 339.332 216.625 338.961 221.68 338.715C225.447 338.532 229.228 338.549 233.003 338.383C237.781 338.172 242.481 337.601 246.991 336.023C251.48 334.452 254.841 331.818 257.303 328.275C259.626 324.937 261.766 321.503 264.11 318.183C266.807 314.366 269.61 310.606 272.42 306.846C274.704 303.788 277.067 300.771 279.397 297.743C281.248 295.331 283.034 292.874 284.97 290.514C287.878 286.96 290.812 283.428 293.864 279.971C296.601 276.885 299.463 273.879 302.365 270.908C305.699 267.491 309.171 264.176 312.506 260.759C317.646 255.496 323.284 250.668 329.074 245.959C332.808 242.919 336.858 240.227 341.092 237.73C345.208 235.301 349.527 233.204 354.004 231.336C356.544 230.279 359.104 229.267 361.592 228.124C362.576 227.673 363.456 226.987 364.237 226.278C364.847 225.724 364.769 225.147 364.132 224.616C363.521 224.101 362.832 223.621 362.084 223.284C359.905 222.307 357.561 221.758 355.146 221.398C351.509 220.856 347.866 220.467 344.164 220.667C337.896 221.004 331.732 221.941 325.706 223.427C320.573 224.696 315.44 226.016 310.563 227.953C305.108 230.124 299.634 232.267 294.199 234.484C289.276 236.496 284.419 238.61 279.509 240.644C273.831 242.993 268.127 245.302 262.436 247.633C258.898 249.079 255.393 250.576 251.828 251.982C249.091 253.062 246.328 254.09 243.525 255.028C240.144 256.159 236.757 257.29 233.291 258.188C230.055 259.028 226.773 259.765 223.393 260.148C219.481 260.588 215.601 260.828 211.709 260.051C208.434 259.393 206.097 257.725 204.521 255.165C203.104 252.856 202.592 250.307 201.843 247.822C200.773 244.25 199.848 240.639 198.66 237.096C197.984 235.073 197.052 233.096 195.982 231.204C193.678 227.136 190.389 223.678 186.641 220.558C181.062 215.918 174.609 212.387 167.605 209.655C162.289 207.587 156.762 206.027 151.044 204.958C147.06 204.215 143.056 203.627 139.013 203.409C132.324 203.055 125.622 203.187 118.999 204.164C113.164 205.021 107.427 206.29 101.847 208.027C97.3114 209.438 92.8873 211.09 88.5288 212.878C82.5227 215.353 76.7267 218.135 71.4624 221.684C67.6356 224.267 64.2354 227.21 61.2291 230.524C58.5247 233.507 56.4374 236.822 54.2515 240.084C53.3457 241.439 52.2955 242.736 51.1665 243.965C50.2803 244.936 49.1776 244.793 48.3636 243.753C48.1798 243.519 48.0354 243.25 47.9041 242.987C47.1362 241.444 46.8933 239.804 46.657 238.147C45.7905 231.959 46.7686 225.941 48.9413 220.067C50.3328 216.307 52.3152 212.758 54.6585 209.364C57.0938 205.832 59.8441 202.495 62.916 199.369C65.2397 197.004 67.5962 194.661 70.0708 192.415C72.3813 190.324 74.8625 188.369 77.2781 186.363C79.3786 184.615 81.42 182.803 83.6189 181.152C88.7454 177.295 93.9704 173.535 99.7139 170.386C104.309 167.866 108.969 165.42 113.721 163.14C117.476 161.34 121.408 159.826 125.281 158.214C130.794 155.917 136.485 154.003 142.262 152.277C147.487 150.717 152.771 149.294 158.048 147.86C161.186 147.003 164.35 146.197 167.52 145.431C171.839 144.391 176.191 143.448 180.504 142.397C183.674 141.625 186.805 140.745 189.956 139.923C195.45 138.483 200.8 136.757 205.834 134.334C209.32 132.654 212.49 130.597 215.24 128.082C218.897 124.745 222.638 121.494 226.642 118.471C230.062 115.888 233.377 113.185 236.889 110.699C241.772 107.248 246.741 103.87 251.789 100.602C257.145 97.1332 262.587 93.7674 268.081 90.4645C272.426 87.8473 276.929 85.4244 281.32 82.8701C287.582 79.23 293.785 75.5214 300.054 71.887C306.874 67.9327 313.733 64.024 320.586 60.1097C323.14 58.6525 325.713 57.2239 327.925 55.3667C330.143 53.5038 331.83 51.4181 332.106 48.6295C332.356 46.1323 330.669 43.6408 328.174 43.0008C326.448 42.5608 324.702 42.5608 322.923 42.7722C319.72 43.1494 316.714 44.0865 313.773 45.1837C308.994 46.9609 304.281 48.8695 299.529 50.6809C293.982 52.7953 288.449 54.9267 282.856 56.9382C278.353 58.5554 273.739 59.9154 269.026 60.9783C265.796 61.704 262.534 62.3326 259.292 63.0012C256.272 63.624 253.259 64.2698 250.24 64.8812C246.892 65.5555 243.538 66.1727 240.19 66.8527C236.659 67.567 233.134 68.3156 229.609 69.0527C224.279 70.167 218.949 71.2985 213.613 72.4013C209.989 73.1499 206.372 73.9042 202.736 74.59C198.634 75.3614 194.518 76.0814 190.402 76.7957C185.86 77.5843 181.318 78.35 176.769 79.1043C174.915 79.4151 173.052 79.6995 171.195 79.9881C170.861 80.0399 170.861 80.3123 171.196 80.2758C173.612 80.0015 176.027 79.7386 178.436 79.4415C181.462 79.07 184.488 78.7215 187.501 78.2757C190.606 77.8129 193.691 77.2643 196.776 76.7214C200.373 76.0871 203.977 75.4528 207.561 74.7557C211.053 74.0757 214.525 73.3214 217.997 72.5899C222.172 71.7156 226.34 70.8299 230.515 69.9499C232.832 69.4584 235.149 68.9556 237.473 68.4927C241.011 67.7898 244.555 67.1327 248.087 66.4412C251.717 65.7326 255.353 65.0412 258.97 64.2812C264.024 63.2183 269.085 62.184 274.093 60.984C279.561 59.6697 284.891 57.9611 290.182 56.161C295.505 54.3496 300.842 52.5495 306.205 50.8238C308.981 49.9324 311.836 49.2238 314.797 48.9781C315.69 48.9038 316.615 48.938 317.508 49.0523C319.936 49.3609 320.652 51.2238 319.89 52.8638C318.912 54.9782 317.304 56.6696 315.401 58.1154C311.6 61.0068 307.734 63.8469 303.769 66.5669C299.837 69.2641 295.781 71.8185 291.724 74.3785C288.56 76.3786 285.344 78.3214 282.102 80.23C277.474 82.9444 272.741 85.533 268.16 88.2988C261.379 92.3903 254.625 96.5161 247.975 100.768C242.219 104.453 236.567 108.276 230.981 112.162C227.633 114.488 224.456 117.014 221.273 119.516C218.266 121.882 215.313 124.299 212.418 126.768C209.3 129.431 205.92 131.78 202.066 133.58C197.222 135.848 192.096 137.568 186.877 139.037C181.436 140.563 175.909 141.871 170.415 143.271C165.978 144.403 161.521 145.488 157.103 146.671C153.145 147.734 149.207 148.877 145.288 150.054C141.323 151.243 137.352 152.431 133.459 153.786C129.258 155.249 125.11 156.843 120.994 158.483C118.218 159.586 115.481 160.774 112.829 162.089C108.812 164.077 104.821 166.123 100.935 168.3C97.4493 170.255 94.0557 172.34 90.754 174.518C87.8658 176.42 85.1155 178.478 82.3915 180.552C79.3326 182.872 76.2935 185.209 73.3791 187.666C66.9201 193.106 60.8681 198.855 55.735 205.307C52.1576 209.804 49.2366 214.593 47.1952 219.775C45.1998 224.844 44.1758 230.073 44.0248 235.433C43.9067 239.696 44.2808 243.925 45.6461 248.033C46.0662 249.29 46.6964 250.548 47.5037 251.65C48.4555 252.948 49.2826 252.902 50.4576 251.753C50.7398 251.479 50.9892 251.165 51.1599 250.827C52.1839 248.816 53.2276 246.816 54.1728 244.776C55.7088 241.467 57.2972 238.182 59.3583 235.079C62.0168 231.084 65.3053 227.559 69.3291 224.558C74.4621 220.73 80.1728 217.655 86.1854 214.987C90.2683 213.175 94.4167 211.49 98.7424 210.175C102.523 209.027 106.298 207.827 110.164 206.941C114.122 206.032 118.152 205.347 122.255 204.987C128.904 204.404 135.54 204.472 142.144 205.204C147.782 205.832 153.289 207.015 158.646 208.752C165.085 210.838 171.104 213.553 176.559 217.198C180.714 219.975 184.311 223.204 187.219 227.004C189.49 229.97 191.124 233.176 191.964 236.673C192.687 239.679 193.363 242.696 194.058 245.713C194.774 248.81 195.502 251.902 196.185 255.005C196.572 256.77 197.157 258.462 198.082 260.073C199.815 263.091 202.71 264.765 206.366 265.502C210.35 266.302 214.374 266.051 218.312 265.313C221.759 264.668 225.165 263.839 228.519 262.896C231.959 261.931 235.346 260.788 238.7 259.605C241.746 258.53 244.739 257.33 247.726 256.13C250.581 254.988 253.41 253.799 256.233 252.588C259.699 251.102 263.125 249.547 266.591 248.079C270.49 246.422 274.428 244.839 278.334 243.193C285.672 240.102 292.998 236.999 300.323 233.89C304.951 231.924 309.644 230.084 314.482 228.559C317.265 227.684 320.055 226.798 322.91 226.153C326.369 225.37 329.881 224.776 333.399 224.21C336.839 223.656 340.318 223.347 343.816 223.638C345.523 223.781 347.236 224.027 348.884 224.421C351.654 225.084 352.067 226.741 349.941 228.416C348.851 229.279 347.689 230.09 346.501 230.844C343.652 232.65 340.738 234.381 337.902 236.199C331.752 240.142 325.877 244.382 320.508 249.119C315.755 253.313 311.114 257.61 306.48 261.908C303.284 264.873 300.152 267.891 297.048 270.931C293.47 274.434 289.919 277.959 286.414 281.52C284.524 283.44 282.745 285.451 280.92 287.422C278.498 290.04 276.069 292.657 273.66 295.285C270.628 298.6 267.634 301.937 264.602 305.251C261.34 308.823 258.084 312.406 254.776 315.949C252.222 318.686 249.669 321.435 246.971 324.063C244.529 326.44 241.346 327.84 237.86 328.755C232.957 330.04 227.902 330.275 222.848 330.469C219.507 330.595 216.153 330.589 212.818 330.8C208.493 331.075 204.174 331.383 199.933 332.389C195.653 333.406 191.873 335.121 188.42 337.486C184.258 340.332 180.287 343.389 175.725 345.784C172.03 347.726 168.19 349.378 164.035 350.406C161.048 351.149 158.009 351.635 154.898 351.858C149.535 352.247 144.178 352.132 138.868 351.584C134.707 351.155 130.591 350.349 126.475 349.635C121.283 348.738 116.111 347.749 110.919 346.835C107.151 346.166 103.324 345.984 99.5038 346.281C97.8563 346.412 96.2087 346.795 94.6333 347.241C91.6598 348.086 89.0539 349.572 86.5136 351.127C81.7088 354.075 77.1928 357.327 72.9262 360.852C68.1016 364.841 63.5265 369.013 60.1329 374.035C59.4831 374.99 58.9973 376.058 58.6297 377.121C58.1834 378.401 58.9776 379.253 60.507 379.236C61.4063 379.224 62.3384 379.167 63.1917 378.944C65.6073 378.304 68.0032 377.613 70.3793 376.87C76.0703 375.081 81.7285 373.201 87.4392 371.458C90.4521 370.538 93.5174 369.71 96.6157 369.047C100.41 368.235 104.256 367.573 108.109 366.99C111.404 366.487 114.726 366.064 118.087 366.235C120.994 366.384 123.909 366.527 126.804 366.767C130.939 367.11 135.074 367.493 139.196 367.938C142.039 368.241 144.881 368.59 147.684 369.081C150.532 369.584 153.342 370.264 156.151 370.921C160.89 372.03 165.229 373.91 169.345 376.201C172.489 377.95 175.43 379.933 178.2 382.104C182.164 385.219 186.083 388.379 190.035 391.504C191.866 392.95 193.638 394.482 195.634 395.744C198.266 397.407 201.338 398.133 204.574 398.51C208.132 398.927 211.657 398.75 215.142 398.276C218.102 397.876 220.997 397.11 223.925 396.516C228.355 395.619 232.602 394.236 236.803 392.779C242.908 390.659 248.894 388.276 254.959 386.064C259.968 384.236 264.969 382.379 270.07 380.756C274.271 379.418 278.563 378.236 282.909 377.31C288.003 376.224 293.188 375.441 298.466 375.27C303.08 375.121 307.616 375.418 312.04 376.681C316.07 377.83 319.713 379.613 323.238 381.613C325.877 383.11 328.45 384.693 331.043 386.247C336.74 389.67 342.333 393.196 346.875 397.819C349.356 400.345 352.041 402.722 354.358 405.356C359.314 410.99 363.41 417.059 365.858 423.888C366.725 426.305 367.046 428.762 366.613 431.277C366.278 433.225 364.828 433.751 363.108 432.488C362.051 431.717 361.119 430.825 360.141 429.979C357.778 427.928 355.474 425.831 353.058 423.831C349.553 420.934 345.661 418.476 341.558 416.259C338.112 414.396 334.561 412.71 330.774 411.419C327.748 410.385 324.623 409.659 321.426 409.122C315.886 408.196 310.399 408.316 304.957 409.585C300.185 410.699 296.188 412.985 292.63 415.905C289.578 418.413 286.657 421.025 284.038 423.894C280.506 427.762 276.89 431.574 273.398 435.471C270.555 438.648 267.792 441.882 265.088 445.145C261.655 449.283 258.235 453.437 254.94 457.666C252.426 460.894 250.049 464.209 247.719 467.546C244.7 471.872 241.759 476.243 238.858 480.632C237.171 483.186 235.668 485.832 234 488.392C233.036 489.878 231.775 491.186 230.167 492.209C227.62 493.832 224.719 494.089 221.699 493.855C218.621 493.615 215.72 492.752 212.93 491.678C208.04 489.78 203.511 487.3 199.047 484.752C194.419 482.112 189.825 479.426 185.177 476.809C181.777 474.895 178.311 473.06 174.885 471.174C170.336 468.672 165.768 466.18 161.258 463.626C157.582 461.54 153.965 459.374 150.336 457.226C147.027 455.266 143.85 453.134 140.161 451.705C138.98 451.248 137.772 450.854 136.446 450.911C135.317 450.963 134.766 451.368 134.654 452.346C134.588 452.917 134.628 453.517 134.772 454.077C135.028 455.048 135.337 456.014 135.737 456.946C137.444 460.906 139.223 464.837 140.45 468.946C141.586 472.734 142.439 476.557 143.076 480.426C143.693 484.169 144.264 487.923 145.006 491.649C145.675 495.015 146.784 498.284 148.655 501.312C150.303 503.975 151.983 506.632 153.769 509.227C157.129 514.107 160.142 519.147 163.063 524.227C165.702 528.821 168.334 533.427 170.999 538.01C172.942 541.359 175.279 544.496 178.272 547.204C182.466 550.999 186.772 554.702 191.032 558.439C193.789 560.856 196.625 563.199 199.29 565.685C203.202 569.331 206.799 573.205 209.956 577.388C213.672 582.314 216.75 587.491 218.588 593.182C219.947 597.388 220.544 601.68 219.717 606.023C218.381 613.012 211.502 617 204.387 617H148.215C147.959 617 147.794 616.588 148.045 616.531C149.108 616.297 150.185 616.114 151.261 615.926C155.613 615.16 159.998 614.526 164.304 613.611C169.542 612.497 174.629 610.954 179.48 608.846C182.624 607.48 185.499 605.834 187.928 603.6C192.982 598.954 194.439 593.474 192.857 587.348C191.8 583.239 189.542 579.571 186.68 576.205C182.86 571.713 178.338 567.782 173.566 564.068C169.338 560.776 164.993 557.593 160.779 554.285C157.412 551.633 154.28 548.776 151.878 545.376C148.622 540.77 146.043 535.861 143.43 530.964C141.868 528.027 140.339 525.078 138.829 522.118C137.726 519.958 136.597 517.798 135.658 515.581C134.536 512.93 134.424 510.141 134.483 507.335C134.595 501.952 135.868 496.678 136.426 491.335C136.604 489.598 136.997 487.866 137.057 486.123C137.155 482.923 137.208 479.712 137.037 476.512C136.919 474.323 136.538 472.117 136.013 469.969C135.481 467.78 134.72 465.626 133.893 463.511C132.751 460.597 131.182 457.848 129.416 455.18C128.248 453.42 127.125 451.625 126.154 449.78C125.648 448.82 125.379 447.723 125.254 446.665C125.071 445.123 125.799 444.18 127.499 443.757C128.622 443.477 129.862 443.271 131.011 443.385C132.895 443.568 134.792 443.905 136.597 444.403C141.717 445.797 146.43 448.014 151.195 450.105C155.711 452.088 160.168 454.168 164.717 456.1C171.662 459.048 178.646 461.923 185.63 464.786C189.818 466.5 194.078 468.054 198.568 469.094C202.382 469.98 206.208 470.603 210.167 469.9C212.91 469.409 215.332 468.346 217.17 466.512C221.581 462.094 225.92 457.62 230.266 453.157C232.701 450.654 235.11 448.128 237.525 445.608C239.691 443.345 241.851 441.071 244.024 438.808C246.899 435.814 249.852 432.877 252.662 429.837C256.751 425.402 260.801 420.928 264.753 416.396C266.597 414.282 268.225 412.025 269.846 409.779C270.496 408.876 270.943 407.836 271.336 406.819C271.973 405.179 271.192 404.167 269.21 404.145C268.028 404.127 266.794 404.23 265.672 404.522C263.302 405.139 260.972 405.882 258.655 406.63C254.309 408.036 250.207 409.91 246.124 411.79C242.626 413.402 239.186 415.105 235.727 416.768C231.762 418.676 227.797 420.591 223.826 422.494C219.153 424.739 214.479 426.985 209.792 429.219C206.491 430.797 203.202 432.391 199.854 433.894C197.485 434.957 195.096 436.042 192.595 436.825C187.468 438.442 182.118 438.665 176.749 438.065C172.443 437.585 168.157 436.951 163.89 436.265C159.578 435.574 155.298 434.722 150.992 433.979C147.336 433.351 143.686 432.699 140.004 432.225C135.422 431.631 130.808 431.219 126.219 430.699C125.038 430.562 123.856 430.379 122.721 430.071C120.916 429.585 120.581 428.791 121.414 427.316C121.559 427.059 121.756 426.819 121.933 426.574C122.524 425.768 123.095 424.956 123.705 424.162C124.893 422.625 125.497 420.871 126.278 419.179C127.447 416.636 128.655 414.105 129.777 411.55C130.079 410.865 130.315 410.093 130.289 409.368C130.197 406.75 130.118 404.127 129.777 401.527C129.429 398.887 128.819 396.276 128.241 393.664C128.018 392.653 127.696 391.624 127.178 390.704C126.042 388.681 124.034 387.43 121.769 386.436C118.776 385.116 115.533 384.567 112.271 384.224C104.407 383.39 96.6157 384.007 88.9423 385.624C85.0039 386.453 81.164 387.584 77.3962 388.91C72.8343 390.516 68.3576 392.259 64.2748 394.687C61.1438 396.55 58.3606 398.733 56.0566 401.373C53.9102 403.836 52.2627 406.522 50.8842 409.373C48.915 413.465 47.6088 417.711 46.8342 422.065C46.1319 426.054 45.7774 430.082 45.8956 434.134C45.9218 435.048 45.9218 435.968 45.8693 436.882C45.8037 438.002 45.6986 439.122 45.5674 440.242C45.4886 440.911 45.2917 441.608 44.4974 441.9C43.6638 442.202 42.9943 441.722 42.4429 441.282C41.7471 440.722 41.071 440.105 40.5525 439.414C37.9072 435.877 36.0167 432.031 34.553 428.014C32.8857 423.431 32.0192 418.711 31.5598 413.939C30.8246 406.339 31.3563 398.819 33.7259 391.43C34.7433 388.259 36.0889 385.201 37.7496 382.253C40.9135 376.636 45.2982 371.773 50.3525 367.384C54.3631 363.898 58.5116 360.515 62.7322 357.218C69.375 352.029 76.4838 347.361 84.1112 343.298C89.5331 340.406 95.3816 339.555 101.585 340.303C105.608 340.789 109.534 341.669 113.426 342.675C118.224 343.921 122.996 345.229 127.814 346.424C132.357 347.544 136.945 348.509 141.638 349.081C145.248 349.521 148.852 349.829 152.495 349.704C158.035 349.515 163.378 348.566 168.439 346.538C173.808 344.384 178.338 341.246 182.329 337.503C185.151 334.858 187.836 332.098 190.612 329.418C192.732 327.372 195.109 325.6 197.898 324.24C200.832 322.812 203.97 321.835 207.14 320.943C210.724 319.937 214.348 319.034 217.951 318.069C221.903 317.012 225.717 315.64 228.775 313.16C233.305 309.486 237.709 305.691 242.107 301.891C244.411 299.903 246.63 297.846 248.796 295.748C252.78 291.891 256.758 288.017 260.631 284.074C263.204 281.457 265.652 278.742 268.061 276.005C270.319 273.434 272.63 270.879 274.244 267.931C274.632 267.228 274.973 266.468 275.085 265.702C275.321 264.119 274.618 263.491 272.767 263.428C272.531 263.422 272.288 263.422 272.052 263.456C270.975 263.628 269.886 263.771 268.829 264.011C265.915 264.673 263.138 265.685 260.421 266.805C255.898 268.668 251.395 270.571 246.892 272.474C244.319 273.559 241.766 274.674 239.199 275.777C235.655 277.302 232.13 278.874 228.559 280.348C225.461 281.628 222.33 282.851 219.166 284.011C214.906 285.571 210.619 287.08 206.32 288.548C203.438 289.531 200.478 290.348 197.616 291.365C194.885 292.337 192.483 293.771 190.79 295.925C189.352 297.76 188.348 299.806 187.672 301.92C186.674 305.04 185.906 308.211 185.072 311.366C183.989 315.492 183.103 319.652 181.37 323.64C179.769 327.326 177.799 330.795 174.891 333.823C172.332 336.492 169.187 338.481 165.413 339.646C160.621 341.126 155.836 340.881 151.084 339.463C145.307 337.738 140.614 334.566 136.262 330.966C133.282 328.503 130.433 325.926 128.084 322.977C126.206 320.629 124.23 318.32 122.635 315.823C120.207 312.017 118.027 308.08 115.815 304.171C113.013 299.217 110.531 294.137 108.372 288.948C107.368 286.525 106.396 284.085 105.641 281.599C104.729 278.594 104.04 275.531 103.291 272.485C102.95 271.102 102.641 269.714 102.431 268.308C102.051 265.708 101.841 263.091 101.414 260.502C100.731 256.388 100.397 252.233 99.2347 248.182C98.5389 245.753 97.7644 243.365 96.0512 241.302C93.8653 238.679 90.8525 237.267 87.1832 237.107C82.4046 236.902 78.3283 238.519 74.8166 241.244C71.4624 243.856 69.3028 247.187 67.7865 250.805C66.2046 254.57 65.4235 258.508 65.3447 262.531C65.2594 266.622 65.7976 270.651 66.7166 274.674C67.78 279.359 69.8805 283.64 72.703 287.668C74.856 290.748 77.1862 293.737 79.5427 296.708C82.0107 299.817 84.6692 302.811 87.111 305.926C89.3427 308.766 91.4432 311.691 93.5174 314.623C94.1082 315.457 94.4692 316.434 94.7843 317.389C95.1059 318.366 94.4824 319.023 93.3271 319.069C92.8085 319.086 92.2703 319.04 91.7649 318.932C88.9029 318.314 86.3102 317.177 83.9537 315.657C80.6389 313.514 77.8754 310.869 75.1579 308.194C72.3616 305.446 69.4275 302.863 65.8895 300.823C63.625 299.514 61.3472 298.211 59.2008 296.76C53.5951 292.96 49.1119 288.274 45.6527 282.897C42.1278 277.422 39.1215 271.719 37.0604 265.691C36.0955 262.868 35.2225 260.005 34.6186 257.113C33.6602 252.519 33.378 247.85 33.3517 243.193C33.3189 237.073 33.6274 230.976 35.2094 224.964C36.2268 221.096 37.6446 217.353 39.6335 213.804C41.222 210.975 43.0402 208.232 44.9175 205.541C46.5979 203.135 48.4227 200.798 50.3131 198.512C53.9693 194.084 58.2556 190.106 62.7585 186.341C67.6684 182.226 72.7161 178.226 77.8689 174.34C81.7613 171.409 85.8179 168.626 89.9729 165.986C93.5897 163.689 97.4427 161.677 101.21 159.563C106.908 156.363 112.816 153.471 118.953 150.986C125.996 148.128 133.112 145.42 140.266 142.774C145.531 140.825 150.867 139.031 156.217 137.271C161.481 135.54 166.713 133.757 171.826 131.705C176.126 129.98 180.327 128.111 184.088 125.597C187.107 123.579 189.976 121.379 192.87 119.219C196.92 116.191 200.937 113.128 204.968 110.076C208.315 107.539 211.689 105.036 214.991 102.453C217.754 100.288 220.498 98.0818 222.566 95.3503C223.052 94.7046 223.426 93.9617 223.649 93.2132C223.898 92.4074 223.432 91.7046 222.513 91.4474C221.667 91.2074 220.741 90.9902 219.868 91.0245C217.485 91.1217 215.063 91.1674 212.746 91.5846C208.171 92.4017 203.616 93.356 199.119 94.436C194.899 95.4532 190.724 96.6475 186.575 97.8818C182.204 99.1847 177.865 100.573 173.559 102.03C169.785 103.31 166.076 104.733 162.348 106.116C159.807 107.059 157.293 108.059 154.753 109.013C151.556 110.213 148.327 111.339 145.163 112.602C139.439 114.894 133.624 116.974 127.644 118.688C124.388 119.619 121.08 120.448 117.765 121.197C115.179 121.779 112.56 122.294 109.921 122.614C106.284 123.054 102.615 123.385 98.9459 123.574C91.8108 123.939 84.7151 123.694 77.7638 122.014C74.0027 121.105 70.445 119.854 67.4452 117.614C66.1455 116.642 64.9181 115.596 63.625 114.614C62.5149 113.764 61.0752 114.166 60.8801 115.55C60.8526 115.746 60.8381 115.944 60.8352 116.145C60.7827 119.156 62.3844 121.482 64.8852 123.402C68.3182 126.037 72.5192 127.254 76.858 128.157C78.8009 128.562 80.7898 128.831 82.7787 129.048C85.9032 129.385 89.0408 129.74 92.185 129.882C98.6964 130.185 105.188 129.757 111.614 128.837C116.511 128.134 121.355 127.185 126.239 126.408C128.156 126.105 130.112 125.939 132.055 125.791C132.44 125.761 132.863 125.734 133.259 125.85C133.823 126.015 133.957 126.834 133.499 127.202C132.77 127.797 132.061 128.448 131.208 128.882C127.992 130.505 124.775 132.128 121.474 133.608C117.614 135.334 113.676 136.923 109.757 138.545C103.212 141.26 96.5763 143.78 89.8022 146.031C86.9534 146.974 84.0784 147.894 81.1509 148.614C78.4924 149.266 75.7684 149.854 73.0312 150.077C66.756 150.591 60.5333 149.94 54.3631 148.923C51.8754 148.517 49.3876 148.106 46.8933 147.757C42.8367 147.197 38.7736 146.683 34.717 146.163C32.7347 145.906 30.7458 145.631 28.7569 145.448C25.3305 145.128 21.9501 144.637 18.6746 143.666C14.3161 142.368 11.2048 139.991 10.1808 135.963C9.60315 133.688 9.32089 131.368 9.59658 129.02C10.0889 124.802 10.614 120.579 11.0144 116.356C11.2507 113.888 10.9225 111.453 9.74756 109.156C7.84399 105.431 4.60794 102.596 1.33906 99.7961C0.658871 99.2154 0.000463933 98.6161 0.00115278 97.7217C0.0235028 68.7027 0.0259541 39.7096 0.0262229 10.7155C0.0262778 4.79747 4.82374 0 10.7417 0C12.3135 0 13.8843 0 15.4545 0C15.8536 0 16.1492 0.267585 16.4757 0.497152C19.0947 2.29147 21.6612 4.15436 24.3787 5.83439C27.7395 7.91443 31.3694 9.56589 35.5113 10.1545C39.9486 10.7888 44.1298 10.1202 48.1011 8.27444C50.2738 7.26299 52.1642 5.94297 53.8905 4.4458C56.7246 1.99947 60.2994 0 64.0432 0C112.272 0 160.495 0 208.718 0C209.683 0 210.511 0.919721 210.186 1.82861C209.3 4.28579 207.81 6.4344 205.755 8.29158C203.432 10.3945 200.727 11.9374 197.491 12.7888C193.179 13.9203 188.774 13.7317 184.403 13.366C179.408 12.9488 174.563 11.7945 169.765 10.5088C165.439 9.34303 161.087 8.25158 156.749 7.11442C152.948 6.12011 149.069 5.43439 145.137 4.98866C137.214 4.09722 129.403 4.66294 121.703 6.46298C117.831 7.36585 114.063 8.5373 110.367 9.90876C104.729 12.0002 99.3922 14.5546 94.3445 17.5546C89.8482 20.2289 85.6735 23.269 81.781 26.5833C77.6851 30.0691 73.681 33.6406 70.3924 37.7493C69.2569 39.1722 68.2198 40.6865 67.4255 42.2694C66.6444 43.8237 67.6159 44.8065 69.5719 44.6237C70.5631 44.5322 71.5608 44.3437 72.4995 44.058C76.1031 42.9722 79.674 41.8008 83.2776 40.715C88.3253 39.195 93.373 37.6921 98.4536 36.2521C102.464 35.1149 106.619 34.5092 110.8 34.1778C115.618 33.7949 120.417 33.8806 125.222 34.6292C130.499 35.4578 135.297 37.1893 139.564 39.9322C142.813 42.0293 145.852 44.378 148.931 46.6751C153.276 49.9209 157.523 53.2581 161.888 56.481C164.757 58.6011 167.993 60.2411 171.708 60.8983C174.885 61.4583 178.108 61.9269 181.331 62.1154C188.847 62.544 196.323 61.784 203.78 61.0811C207.003 60.7783 210.212 60.3211 213.409 59.8411C218.956 59.0125 224.496 58.1268 230.029 57.2468C233.127 56.7553 236.219 56.2296 239.311 55.7153C243.197 55.0696 247.096 54.4582 250.975 53.761C253.916 53.2296 256.837 52.6124 259.758 51.9895C262.81 51.3381 265.901 50.7724 268.882 49.9152C272.315 48.9266 275.695 47.7837 278.997 46.4923C282.955 44.9494 286.9 43.3437 290.661 41.4693C295.328 39.1379 299.857 36.5835 304.327 33.9778C309.447 30.9949 314.278 27.6805 318.4 23.6462C320.783 21.3204 323.264 19.0689 325.581 16.6975C328.266 13.9431 330.767 11.0573 333.439 8.2973C335.533 6.13154 337.85 4.16008 340.849 2.90863C344.453 1.41145 347.085 2.07432 349.52 4.04579C351.627 5.74868 352.953 7.91443 353.964 10.2173C355.769 14.3203 356.636 18.6289 357.115 22.9776C357.627 27.6577 357.752 32.3663 357.542 37.0693C357.391 40.5208 357.233 43.9722 357.102 47.4237C356.866 53.7839 358.04 59.9325 360.817 65.8241C362.937 70.3213 365.386 74.6757 368.188 78.8815C371.805 84.3044 375.58 89.6417 379.728 94.7732C382.084 97.6875 384.618 100.499 387.224 103.248C388.36 104.448 389.784 105.493 391.254 106.396C394.261 108.236 397.74 108.836 401.337 108.625C403.805 108.476 406.299 108.196 408.682 107.653C414.865 106.253 420.976 104.636 427.146 103.19C432.319 101.979 437.577 101.505 442.887 102.442C445.151 102.842 447.272 103.59 448.945 105.065C450.258 106.218 450.993 107.892 450.993 109.639V115.145C450.993 115.785 450.721 116.367 450.383 116.911C449.622 118.156 448.945 119.448 448.112 120.648C445.834 123.934 442.979 126.854 440.038 129.682C437.163 132.442 434.052 135.02 430.96 137.608C430.375 138.098 429.774 138.626 428.979 139.012C428.4 139.293 427.774 138.637 428.131 138.1C428.846 137.02 429.575 135.945 430.376 134.917C432.942 131.602 435.273 128.18 436.861 124.408C437.426 123.071 437.701 121.677 437.544 120.242C437.307 118.048 435.588 116.505 433.113 116.111C429.733 115.574 426.464 116.042 423.201 116.774C419.407 117.631 415.784 118.911 412.115 120.088C409.384 120.962 406.66 121.882 403.857 122.528C399.735 123.477 395.541 123.917 391.228 123.437C388.058 123.082 385.065 122.311 382.216 121.117C377.385 119.082 373.381 116.059 369.58 112.831C366.173 109.933 362.872 106.939 359.557 103.962C357.102 101.762 354.732 99.4876 352.258 97.2989C349.954 95.2589 347.571 93.2817 345.201 91.2931C342.996 89.4417 340.495 87.9102 337.915 86.4873C334.942 84.8473 331.719 83.7787 328.187 83.4015C324.131 82.973 320.173 83.4758 316.254 84.2816C311.443 85.2701 306.94 86.9902 302.693 89.1674C297.415 91.8703 292.604 95.1503 287.97 98.6133C283.152 102.213 278.747 106.185 274.75 110.488C271.218 114.294 268.225 118.351 266.551 123.077C265.678 125.539 265.403 128.025 265.514 130.585C265.613 132.9 266.427 135.083 267.017 137.305C268.245 141.9 266.722 145.734 263.026 149.048C259.475 152.243 255.032 154.14 250.305 155.534C245.461 156.963 240.473 157.911 235.379 158.391C230.817 158.82 226.261 159.283 221.686 159.563C215.871 159.923 210.042 160.089 204.219 160.392C200.163 160.603 196.106 160.803 192.07 161.174C185.755 161.757 179.447 162.437 173.152 163.174C169.844 163.563 166.555 164.094 163.286 164.689C160.438 165.203 157.641 165.929 154.806 166.495C150.848 167.283 147.001 168.386 143.174 169.546C137.805 171.18 132.626 173.18 127.565 175.432C123.909 177.06 120.41 178.918 117.207 181.158C115.422 182.403 113.708 183.706 112.448 185.421C111.326 186.946 112.048 188.112 114.037 188.546C114.956 188.746 115.92 188.878 116.866 188.872C122.458 188.849 128.051 188.821 133.643 188.712C140.299 188.586 146.942 188.866 153.552 189.415C158.77 189.849 163.982 190.558 169.135 191.404C173.769 192.164 178.357 193.181 182.9 194.284C187.028 195.289 191.072 196.558 195.148 197.718C201.495 199.529 207.626 201.844 213.731 204.175C218.66 206.061 223.472 208.175 228.336 210.192C231.946 211.69 235.536 213.238 239.173 214.684C242.291 215.924 245.415 217.181 248.632 218.21C252.216 219.353 256.003 219.57 259.797 219.421C265.055 219.215 270.273 218.673 275.406 217.65C279.587 216.815 283.749 215.895 287.871 214.85C293.549 213.41 299.161 211.787 304.826 210.307C309.618 209.055 314.429 207.85 319.26 206.701C324.328 205.495 329.48 204.632 334.673 203.941C338.795 203.392 342.937 203.107 347.085 203.009C354.273 202.838 361.401 203.318 368.458 204.598C373.23 205.467 377.916 206.57 382.472 208.078C387.644 209.792 392.639 211.827 397.326 214.438C402.512 217.335 407.159 220.758 411.262 224.736C415.2 228.553 418.436 232.821 421.278 237.302C424.724 242.736 427.383 248.467 429.313 254.445C430.422 257.885 431.301 261.365 431.918 264.913C432.535 268.474 432.759 272.028 432.562 275.611C432.457 277.531 432.102 279.422 431.262 281.205C430.632 282.537 429.444 282.657 428.446 281.497C427.737 280.668 427.114 279.777 426.543 278.868C424.514 275.628 422.552 272.354 420.504 269.114C417.064 263.668 412.948 258.651 408.025 254.13C404.396 250.799 400.405 247.867 395.79 245.61C392.981 244.239 390.001 243.216 386.889 242.559C382.012 241.53 377.056 241.427 372.087 242.039C366.633 242.713 361.559 244.347 356.78 246.69C351.483 249.285 347.111 252.873 342.97 256.685C341 258.496 339.281 260.485 337.666 262.553C335.277 265.611 333.406 268.828 332.677 272.519C331.909 276.405 333.36 280.617 337.817 283.091C340.817 284.754 344 286.051 347.328 287.074C350.564 288.068 353.833 288.971 357.122 289.84C361.145 290.897 365.051 292.177 368.832 293.805C374.838 296.394 379.748 299.983 383.214 305.017C385.741 308.686 387.211 312.646 387.533 316.903C387.88 321.406 386.955 325.766 385.242 330C384.054 332.943 382.531 335.76 380.837 338.503C378.041 343.035 375.166 347.532 372.357 352.064C370.781 354.595 369.626 357.269 369.022 360.115C368.517 362.51 368.996 364.767 370.374 366.852C371.346 368.327 372.475 369.727 373.532 371.155C376.065 374.578 378.376 378.116 380.391 381.79C381.894 384.521 383.22 387.327 384.625 390.093C386.673 394.127 388.314 398.293 389.738 402.51C390.913 405.973 391.747 409.522 392.613 413.059C392.922 414.305 392.902 415.619 392.994 416.899C393.074 417.999 391.485 418.057 390.782 417.208C390.079 416.368 389.436 415.488 388.859 414.585C386.075 410.225 383.102 405.962 379.748 401.922C377.155 398.796 374.411 395.756 371.674 392.722C367.644 388.264 362.977 384.339 358.126 380.573C355.494 378.533 352.835 376.504 350.387 374.304C346.711 371.007 344.65 366.967 344.23 362.384C343.974 359.567 344.112 356.727 343.987 353.898C343.928 352.447 343.751 351.001 343.527 349.561C343.14 347.075 341.125 345.852 338.624 345.218C335.854 344.515 332.986 344.366 330.098 344.584C326.29 344.869 322.529 345.349 318.775 346.052C313.72 347.001 308.81 348.315 303.966 349.829C299.483 351.229 295.098 352.887 290.628 354.327C284.465 356.309 278.268 358.241 272.052 360.098C268.901 361.041 265.691 361.87 262.455 362.578C257.552 363.658 252.59 364.475 247.555 365.012C241.884 365.618 236.311 365.424 230.784 364.161C225.297 362.91 219.809 361.63 214.295 360.464C211.276 359.824 208.178 359.487 205.06 359.601C203.793 359.647 202.48 359.829 201.285 360.178C199.769 360.624 199.461 361.475 200.078 362.75C200.222 363.052 200.386 363.367 200.622 363.618C201.679 364.738 202.624 365.972 203.858 366.927C207.817 369.984 211.853 372.967 215.91 375.927C218.312 377.681 221.214 378.567 224.233 379.064C228.454 379.761 232.734 379.601 236.941 379.013C240.558 378.504 244.135 377.716 247.686 376.893C250.726 376.19 253.692 375.258 256.699 374.447C261.248 373.213 265.803 371.99 270.352 370.767C274.454 369.664 278.55 368.544 282.659 367.475C286.132 366.573 289.617 365.704 293.116 364.887C295.466 364.338 297.835 363.83 300.225 363.435C302.66 363.035 305.135 362.79 307.59 362.492C309.874 362.218 312.152 362.172 314.455 362.372C318.84 362.755 322.674 364.201 325.772 366.938C327.977 368.887 330.052 370.955 332.178 372.978C334.397 375.087 336.471 377.333 338.867 379.281C342.418 382.167 346.179 384.87 349.895 387.601C352.967 389.859 355.789 392.327 358.395 394.984C362.799 399.476 366.948 404.127 370.446 409.208C374.214 414.682 377.417 420.356 379.551 426.476C380.896 430.334 381.579 434.248 381.316 438.282C381.067 442.105 379.511 445.477 376.879 448.494C374.536 451.174 371.621 453.323 368.339 455.048C364.67 456.98 360.87 458.717 357.154 460.58C353.892 462.214 350.636 463.866 347.453 465.603C345.313 466.769 343.291 468.1 341.23 469.369C340.895 469.575 340.568 469.77 340.176 469.813C339.768 469.857 339.425 469.366 339.655 469.026C340.515 467.689 341.283 466.289 342.307 465.054C344.814 462.026 347.466 459.083 350.013 456.077C351.575 454.226 352.789 452.191 353.544 449.991C354.896 446.048 354.476 442.197 352.579 438.437C350.328 433.968 346.685 430.511 342.241 427.665C338.801 425.459 335.027 423.814 330.866 422.842C327.721 422.105 324.571 421.796 321.381 422.471C318.873 422.996 316.543 423.888 315.02 425.808C312.814 428.585 313.025 431.528 314.547 434.465C315.525 436.357 317.278 437.66 319.352 438.58C321.558 439.562 323.822 440.448 326.093 441.305C328.378 442.168 330.596 443.122 332.592 444.42C334.804 445.86 336.681 447.591 337.672 449.854C338.828 452.488 338.532 455.151 337.462 457.786C336.451 460.266 334.968 462.54 333.517 464.826C331.259 468.386 328.896 471.9 327.222 475.712C326.238 477.957 325.214 480.203 324.479 482.512C323.586 485.306 322.831 488.152 322.28 491.015C321.551 494.786 321.006 498.586 320.508 502.381C319.982 506.387 319.562 510.409 318.118 514.267C317.495 515.935 316.582 517.467 315.243 518.815C313.412 520.661 311.141 522.044 308.935 523.484C305.614 525.644 302.22 527.713 298.807 529.764C295.033 532.033 291.029 533.958 286.913 535.707C281.143 538.153 274.993 539.673 268.888 541.301C267.116 541.776 265.298 542.187 263.709 543.073C262.272 543.873 262.193 544.764 263.407 545.799C264.871 547.05 266.663 547.822 268.521 548.479C270.956 549.342 273.496 549.879 276.069 550.376C281.767 551.479 287.523 551.656 293.319 551.399C297.474 551.216 301.61 550.907 305.719 550.302C310.373 549.61 315.079 549.159 319.72 548.382C324.682 547.553 329.579 546.444 334.246 544.679C338.106 543.216 341.512 541.181 344.295 538.433C347.794 534.981 349.724 530.844 350.846 526.404C352.008 521.798 352.31 517.095 352.835 512.421C353.223 509.021 353.787 505.661 355.185 502.449C356.465 499.506 358.493 497.055 361.349 495.112C364.559 492.929 368.274 491.798 372.206 491.186C377.949 490.295 383.732 490.535 389.495 490.992C391.825 491.175 394.136 491.501 396.46 491.763C399.302 492.089 402.144 492.386 404.98 492.746C409.384 493.306 413.782 493.775 418.252 493.272C422.729 492.763 426.687 491.261 430.186 488.798C432.995 486.82 435.174 484.346 437.281 481.832C440.773 477.666 444.423 473.615 448.742 470.06C449.416 469.507 450.224 469.071 450.971 468.582C450.984 468.574 451 468.583 451 468.597Z" fill="black" fill-opacity="0.27"/>
</g>
</svg>
