<svg width="175" height="26" viewBox="0 0 175 26" fill="none" xmlns="http://www.w3.org/2000/svg">
<g clip-path="url(#clip0_323_1937)">
<path d="M32.5022 4.00689C31.1431 2.66646 28.6446 1.99805 25.0068 1.99805H7.79951L7.49545 2.82099H10.3236L3.07731 24.7027H0.249116L0 25.5292H17.6909L17.9766 24.7027H14.0604L16.5112 17.2998C17.6799 17.4615 18.9364 17.5441 20.2846 17.5441C24.6844 17.5441 28.161 16.7464 30.7145 15.1472C33.2642 13.5516 34.5428 11.4098 34.5428 8.71816C34.5428 6.91774 33.8614 5.34732 32.5022 4.00689ZM26.648 10.3928C24.0616 10.3928 21.8013 12.2507 21.4166 14.8345C21.8379 11.9956 19.8377 9.36142 16.9435 8.94815C17.2036 8.98409 17.4601 9.00206 17.7128 9.00206C20.2992 9.00206 22.5596 7.14414 22.9443 4.56031C22.9076 4.81546 22.8893 5.06702 22.8893 5.31498C22.8893 7.85209 24.7833 10.0694 27.4174 10.4467C27.1573 10.4108 26.9008 10.3928 26.648 10.3928Z" fill="#489FB5"/>
<path d="M54.3072 22.3419C53.7943 23.0283 53.4097 23.3697 53.1459 23.3697C53.0397 23.3697 52.9297 23.3194 52.8235 23.2223C52.7173 23.1217 52.6623 23.0139 52.6623 22.8953C52.6623 22.6869 52.7539 22.3167 52.9407 21.7921C53.1239 21.2638 54.3255 17.6486 56.5456 10.9464H48.0134L47.9035 11.3669C47.0938 10.7236 45.9728 10.4038 44.5404 10.4038C41.5107 10.4038 38.7705 11.4567 36.3123 13.5698C33.8578 15.6829 32.6268 18.0223 32.6268 20.599C32.6268 22.0616 33.169 23.2655 34.2571 24.2106C35.3415 25.1593 36.7262 25.6337 38.4078 25.6337C40.7084 25.6337 42.8479 24.7101 44.8262 22.8594C45.1486 23.7039 45.731 24.3759 46.5736 24.879C47.4126 25.3821 48.3577 25.6337 49.4055 25.6337C52.5671 25.6337 54.886 23.8512 56.3661 20.2827L55.6664 19.9665C55.2744 20.8649 54.8201 21.6591 54.3072 22.3419ZM45.2218 19.4562C44.8628 20.581 44.6723 21.4507 44.6503 22.0724C43.456 23.0786 42.5512 23.5817 41.9284 23.5817C41.4411 23.5817 41.1957 23.2942 41.1957 22.7192C41.1957 22.3239 41.2799 21.8855 41.4485 21.4039L44.2034 13.0523C44.3939 12.4773 44.6357 12.0389 44.9361 11.7263C45.2328 11.4172 45.5845 11.2627 45.9911 11.2627C46.5517 11.2627 47.1048 11.525 47.6544 12.0533L45.2218 19.4562Z" fill="#489FB5"/>
<path d="M71.0969 12.808C70.54 13.4153 70.2653 14.1232 70.2653 14.9282C70.2653 15.8086 70.5876 16.5633 71.2397 17.203C71.8882 17.8391 72.6612 18.1589 73.555 18.1589C74.4489 18.1589 75.1963 17.8462 75.8264 17.2209C76.4602 16.5957 76.7752 15.841 76.7752 14.9641C76.7752 13.6309 76.0828 12.5384 74.6907 11.6831C73.3023 10.8315 71.4925 10.4038 69.2615 10.4038C66.1146 10.4038 63.4842 11.2088 61.374 12.8223C59.2639 14.4395 58.2088 16.4555 58.2088 18.8776C58.2088 20.7247 59.077 22.3131 60.8209 23.6428C62.561 24.9688 64.6712 25.6337 67.1513 25.6337C70.3715 25.6337 73.0422 24.1818 75.167 21.2818L74.6101 20.8254C72.5 23.2942 70.3312 24.5268 68.1002 24.5268C66.5615 24.5268 65.7922 24.0956 65.7922 23.2295C65.7922 22.9241 66.0193 22.1011 66.4736 20.7571L68.1002 15.8769C68.7449 13.9579 69.1662 12.8295 69.3604 12.4917C69.5582 12.1503 69.855 11.8664 70.2543 11.64C70.6536 11.41 71.1335 11.2986 71.694 11.2986C72.2545 11.2986 72.8517 11.4567 73.4488 11.773V11.8413C72.434 11.8772 71.6501 12.197 71.0969 12.808Z" fill="#489FB5"/>
<path d="M89.905 11.6468H93.1252L93.3414 10.9461H90.1542L92.2497 4.57812H91.5499C87.1501 8.76472 83.0837 10.8886 79.3506 10.9461L79.1015 11.6468H81.2483L78.5813 19.6858C78.2845 20.5734 78.1343 21.3568 78.1343 22.036C78.1343 23.1716 78.6143 24.0521 79.5741 24.6846C80.5339 25.317 81.8747 25.6333 83.5929 25.6333C87.1794 25.6333 89.579 23.6783 90.7806 19.772L90.0113 19.56C89.4984 21.0478 88.9086 22.1546 88.2418 22.8877C87.5751 23.6172 87.0256 23.9838 86.5969 23.9838C86.2855 23.9838 86.1317 23.8149 86.1317 23.4735C86.1317 23.2291 86.1866 22.9309 86.2929 22.5787L89.905 11.6468Z" fill="#489FB5"/>
<path d="M109.497 16.8616C108.863 16.8616 108.34 17.0485 107.922 17.4222C107.504 17.7959 107.296 18.2559 107.296 18.8093C107.296 19.2621 107.431 19.6538 107.699 19.9737C107.966 20.2971 108.464 20.6744 109.193 21.1057C109.442 21.2458 109.567 21.4147 109.567 21.616C109.567 21.8711 109.442 22.0005 109.193 22.0005C109.05 22.0005 108.34 21.7022 107.065 21.1057C105.108 20.1929 103.229 19.7365 101.427 19.7365H101.178V19.6682C101.786 19.4095 102.636 19.0609 103.727 18.6225C104.819 18.184 105.793 17.7169 106.651 17.2209C107.512 16.7214 108.332 16.1752 109.12 15.5787C109.908 14.9821 110.582 14.4071 111.142 13.8501C111.703 13.2967 112.567 12.3264 113.736 10.9464L113.128 10.4038C111.706 11.4567 110.384 11.9814 109.157 11.9814C108.739 11.9814 108.351 11.9455 107.992 11.8664C107.636 11.791 106.794 11.5681 105.471 11.1908C103.932 10.7811 102.661 10.5763 101.661 10.5763C99.8843 10.5763 98.3384 11.1261 97.0268 12.2186C95.7153 13.3111 95.0596 14.5832 95.0596 16.035C95.0596 16.8436 95.2867 17.512 95.741 18.0439C96.1916 18.5758 96.7594 18.8417 97.4408 18.8417C97.939 18.8417 98.364 18.6728 98.7084 18.335C99.0564 17.9936 99.2286 17.5803 99.2286 17.088C99.2286 16.5166 98.9721 15.9488 98.4592 15.3846C98.1002 15.0001 97.9207 14.7126 97.9207 14.5257C97.9207 14.3173 98.0306 14.2095 98.2431 14.2095C98.4116 14.2095 98.5728 14.2706 98.7267 14.3856C100.657 15.6146 102.621 16.2291 104.614 16.2291C105.127 16.2291 105.691 16.1644 106.31 16.035L106.383 16.1069C105.764 16.5957 105.042 17.0053 104.218 17.3324C101.679 18.3386 99.9979 19.0501 99.1736 19.467C98.353 19.8802 97.4848 20.4157 96.5726 21.0697C95.6604 21.7274 94.8397 22.4209 94.1107 23.1576C93.3854 23.8979 92.7809 24.6382 92.3046 25.3893L92.9677 25.878C93.5172 25.2959 94.0191 24.861 94.4771 24.5807C94.9387 24.3004 95.4589 24.1603 96.045 24.1603C96.9499 24.1603 98.3933 24.4801 100.372 25.1234C102.196 25.7091 103.845 26.0002 105.31 26.0002C107.479 26.0002 109.164 25.3354 110.362 24.0022C111.563 22.6689 112.161 21.2566 112.161 19.7724C112.161 18.9423 111.908 18.2487 111.402 17.6917C110.893 17.1383 110.259 16.8616 109.497 16.8616Z" fill="#489FB5"/>
<path d="M126.811 10.3315L124.162 18.3346C123.268 21.0478 122.807 22.4565 122.785 22.5535C122.759 22.6541 122.748 22.7835 122.748 22.9488C122.748 23.2291 122.884 23.3693 123.158 23.3693C123.433 23.3693 123.84 23.0315 124.375 22.3523C124.909 21.6731 125.36 20.8897 125.715 20.002L126.448 20.2823C124.957 23.8508 122.59 25.6333 119.348 25.6333C117.942 25.6333 116.769 25.3422 115.835 24.7636C114.901 24.185 114.432 23.4807 114.432 22.6505C114.432 22.1115 114.6 21.3568 114.934 20.3866L117.85 11.6468H115.436L115.652 10.9461H116.67C120.14 10.9461 123.521 10.7412 126.814 10.3315H126.811Z" fill="#489FB5"/>
<path d="M146.81 12.1465C145.069 10.9606 142.82 10.3677 140.065 10.3677C136.728 10.3677 133.929 11.1762 131.669 12.7898C129.408 14.4033 128.28 16.3978 128.28 18.7732C128.28 20.8072 129.097 22.4603 130.738 23.7288C132.376 24.9974 134.541 25.6335 137.222 25.6335C140.703 25.6335 143.608 24.7746 145.934 23.0532C148.26 21.3355 149.422 19.2116 149.422 16.6853C149.422 14.8489 148.55 13.336 146.81 12.1465ZM141.648 14.2991C141.333 15.2119 140.787 16.8614 140.014 19.2548C139.237 21.6481 138.75 23.0604 138.545 23.4917C138.343 23.9265 138.102 24.2643 137.823 24.5087C137.541 24.7566 137.182 24.8788 136.739 24.8788C136.38 24.8788 136.083 24.7674 135.845 24.5446C135.607 24.3218 135.486 24.0415 135.486 23.7037C135.486 23.3048 135.581 22.8376 135.772 22.2986L138.816 13.2102C139.028 12.567 139.289 12.0639 139.593 11.7009C139.897 11.338 140.3 11.1583 140.802 11.1583C141.168 11.1583 141.483 11.2733 141.739 11.5069C141.996 11.7404 142.124 12.0172 142.124 12.3334C142.124 12.7287 141.967 13.3863 141.648 14.2991Z" fill="#489FB5"/>
<path d="M174.198 19.456C173.85 20.4515 173.443 21.26 172.97 21.8853C172.502 22.5142 172.099 22.8268 171.765 22.8268C171.655 22.8268 171.56 22.7801 171.468 22.6939C171.381 22.6076 171.333 22.5106 171.333 22.4064C171.333 22.1117 171.406 21.7488 171.549 21.3175L173.249 16.193C173.678 14.8813 173.894 13.911 173.894 13.2785C173.894 12.4736 173.531 11.7908 172.802 11.2374C172.073 10.6803 171.179 10.4036 170.117 10.4036C167.494 10.4036 164.834 11.8986 162.141 14.8957L162.068 14.8238L163.713 10.2275C162.416 10.436 160.628 10.6085 158.357 10.745C156.086 10.878 154.279 10.9463 152.946 10.9463H152.499L152.25 11.647H154.627L150.048 25.5293H158.654L160.691 19.3877C161.335 17.4436 161.676 16.4517 161.713 16.405C162.116 15.9702 162.478 15.5964 162.793 15.2802C163.108 14.964 163.394 14.7016 163.651 14.4896C163.907 14.2812 164.142 14.1195 164.35 14.0081C164.559 13.8966 164.735 13.8427 164.878 13.8427C165.153 13.8427 165.288 13.9865 165.288 14.2812C165.288 14.5148 165.204 14.8813 165.039 15.3844L163.215 20.9294C163.035 21.5152 162.944 22.0542 162.944 22.5465C162.944 23.4701 163.361 24.214 164.189 24.7818C165.017 25.3496 166.116 25.6335 167.49 25.6335C171.161 25.6335 173.667 23.6678 175 19.7363L174.198 19.456Z" fill="#489FB5"/>
<path d="M122.125 9.15283C122.341 6.6265 120.425 4.40563 117.85 4.1972C120.425 4.40922 122.689 2.52975 122.902 0.00341797C122.686 2.52975 124.602 4.75062 127.177 4.95905C124.602 4.74703 122.338 6.6265 122.125 9.15283Z" fill="#489FB5"/>
</g>
<defs>
<clipPath id="clip0_323_1937">
<rect width="175" height="26" fill="white"/>
</clipPath>
</defs>
</svg>
