<svg width="130" height="31" viewBox="0 0 130 31" fill="none" xmlns="http://www.w3.org/2000/svg">
<path d="M39.6934 23.5H35.6758V7.77344H40.1553C41.9098 7.77344 43.1416 7.85938 43.8506 8.03125C44.5596 8.20312 45.1611 8.49674 45.6553 8.91211C46.2354 9.39193 46.6758 9.99349 46.9766 10.7168C47.2845 11.4329 47.4385 12.2314 47.4385 13.1123C47.4385 14.0505 47.2881 14.8776 46.9873 15.5938C46.6865 16.3027 46.2425 16.8864 45.6553 17.3447C45.2113 17.6885 44.6885 17.9355 44.0869 18.0859C43.4854 18.2363 42.5221 18.3115 41.1973 18.3115H40.4668H39.6934V23.5ZM39.6934 14.8525H40.5098C41.541 14.8525 42.2607 14.7129 42.6689 14.4336C43.0771 14.1471 43.2812 13.6637 43.2812 12.9834C43.2812 12.3245 43.0807 11.8555 42.6797 11.5762C42.2786 11.2969 41.5697 11.1572 40.5527 11.1572H39.6934V14.8525ZM57.2354 18.0645C57.2354 17.2194 57.0098 16.5498 56.5586 16.0557C56.1074 15.5615 55.4915 15.3145 54.7109 15.3145C53.9303 15.3145 53.3145 15.5615 52.8633 16.0557C52.4193 16.5426 52.1973 17.2122 52.1973 18.0645C52.1973 18.9095 52.4229 19.5755 52.874 20.0625C53.3252 20.5495 53.9375 20.793 54.7109 20.793C55.4915 20.793 56.1074 20.5495 56.5586 20.0625C57.0098 19.5755 57.2354 18.9095 57.2354 18.0645ZM60.5977 12.6504V23.5H57.085V21.7383C56.5837 22.4902 56.0179 23.0417 55.3877 23.3926C54.7646 23.7435 54.0306 23.9189 53.1855 23.9189C51.7389 23.9189 50.5824 23.3926 49.7158 22.3398C48.8493 21.2799 48.416 19.862 48.416 18.0859C48.416 16.3171 48.8672 14.9134 49.7695 13.875C50.679 12.8294 51.9001 12.3066 53.4326 12.3066C54.249 12.3066 54.9508 12.4821 55.5381 12.833C56.1325 13.1768 56.641 13.7103 57.0635 14.4336V12.6504H60.5977ZM71.2754 16.2168C70.903 15.8874 70.5449 15.6475 70.2012 15.4971C69.8574 15.3467 69.4958 15.2715 69.1162 15.2715C68.3571 15.2715 67.752 15.5221 67.3008 16.0234C66.8568 16.5247 66.6348 17.2051 66.6348 18.0645C66.6348 18.8952 66.8675 19.5576 67.333 20.0518C67.7985 20.5459 68.4251 20.793 69.2129 20.793C69.5996 20.793 69.9613 20.7178 70.2979 20.5674C70.6416 20.4098 70.9674 20.1699 71.2754 19.8477V23.167C70.8171 23.4248 70.3587 23.6146 69.9004 23.7363C69.4421 23.8581 68.9694 23.9189 68.4824 23.9189C66.8138 23.9189 65.4603 23.3854 64.4219 22.3184C63.3906 21.2441 62.875 19.8333 62.875 18.0859C62.875 16.3887 63.4014 15.0029 64.4541 13.9287C65.514 12.8473 66.8711 12.3066 68.5254 12.3066C69.0768 12.3066 69.5745 12.3604 70.0186 12.4678C70.4626 12.5752 70.8815 12.7471 71.2754 12.9834V16.2168ZM74.2188 23.5V15.3574H72.5967V12.6504H74.2188V9.41699H77.9893V12.6504H79.6113V15.3574H77.9893V23.5H74.2188ZM93.9414 23.5H80.041L87.9795 11.1787H81.6094V7.77344H94.8438L86.9268 20.0732H93.9414V23.5ZM96.208 9.2666C96.208 8.68652 96.4121 8.19238 96.8203 7.78418C97.2357 7.37598 97.7334 7.17188 98.3135 7.17188C98.915 7.17188 99.4163 7.3724 99.8174 7.77344C100.226 8.17448 100.43 8.6722 100.43 9.2666C100.43 9.861 100.222 10.3659 99.8066 10.7812C99.3984 11.1966 98.9007 11.4043 98.3135 11.4043C97.7406 11.4043 97.2464 11.193 96.8311 10.7705C96.4157 10.348 96.208 9.84668 96.208 9.2666ZM96.4014 23.5V12.6504H100.236V23.5H96.4014ZM110.871 18.1074C110.871 17.2982 110.667 16.6608 110.259 16.1953C109.851 15.7298 109.299 15.4971 108.604 15.4971C107.903 15.4971 107.348 15.7298 106.939 16.1953C106.538 16.6608 106.338 17.2982 106.338 18.1074C106.338 18.9167 106.538 19.554 106.939 20.0195C107.34 20.4779 107.896 20.707 108.604 20.707C109.306 20.707 109.858 20.4779 110.259 20.0195C110.667 19.554 110.871 18.9167 110.871 18.1074ZM114.674 18.1074C114.674 18.888 114.52 19.6292 114.212 20.3311C113.911 21.0329 113.471 21.6631 112.891 22.2217C112.303 22.7803 111.645 23.2028 110.914 23.4893C110.191 23.7757 109.421 23.9189 108.604 23.9189C107.774 23.9189 106.993 23.7757 106.263 23.4893C105.539 23.2028 104.891 22.7803 104.318 22.2217C103.745 21.6774 103.309 21.0544 103.008 20.3525C102.707 19.6436 102.557 18.8952 102.557 18.1074C102.557 17.3125 102.703 16.5641 102.997 15.8623C103.298 15.1605 103.738 14.5303 104.318 13.9717C104.884 13.4202 105.529 13.0049 106.252 12.7256C106.982 12.4463 107.767 12.3066 108.604 12.3066C109.442 12.3066 110.223 12.4463 110.946 12.7256C111.67 13.0049 112.318 13.4202 112.891 13.9717C113.478 14.5374 113.922 15.1712 114.223 15.873C114.523 16.5749 114.674 17.3197 114.674 18.1074ZM116.876 23.5V12.6504H120.378V14.8525C120.886 13.9717 121.474 13.3271 122.14 12.9189C122.806 12.5107 123.604 12.3066 124.535 12.3066C125.237 12.3066 125.86 12.4212 126.404 12.6504C126.956 12.8724 127.403 13.1947 127.747 13.6172C128.034 13.9824 128.238 14.4264 128.359 14.9492C128.481 15.472 128.542 16.2526 128.542 17.291V23.5H124.707V17.6885C124.707 16.8219 124.564 16.1917 124.277 15.7979C123.998 15.404 123.547 15.207 122.924 15.207C122.129 15.207 121.549 15.5007 121.184 16.0879C120.818 16.6751 120.636 17.6276 120.636 18.9453V23.5H116.876Z" fill="#2CBAF6"/>
<path d="M24.6287 4.53113L24.3625 4.24542L20.408 0H14.7191V4.42674H10.2809V0H5.04762L0 4.9304V26.2179L4.89575 31H20.0611L25 26.1758V4.9304L24.6269 4.53113H24.6287ZM19.1405 6.27472V13.8187H5.86327V6.27472H19.1405ZM19.1405 24.7271H5.86327V17.1831H19.1405V24.7271Z" fill="#2CBAF6"/>
</svg>
